M48
; DRILL file {KiCad 7.0.5} date Thu Aug 17 05:27:01 2023
; FORMAT={-:-/ absolute / inch / decimal}
; #@! TF.CreationDate,2023-08-17T05:27:01+08:00
; #@! TF.GenerationSoftware,Kicad,Pcbnew,7.0.5
; #@! TF.FileFunction,Plated,1,2,PTH
FMAT,2
INCH
; #@! TA.AperFunction,Plated,PTH,ViaDrill
T1C0.0098
; #@! TA.AperFunction,Plated,PTH,ViaDrill
T2C0.0118
; #@! TA.AperFunction,Plated,PTH,ViaDrill
T3C0.0157
; #@! TA.AperFunction,Plated,PTH,ComponentDrill
T4C0.0236
; #@! TA.AperFunction,Plated,PTH,ComponentDrill
T5C0.0394
; #@! TA.AperFunction,Plated,PTH,ComponentDrill
T6C0.0709
%
G90
G05
T1
X3.9185Y-3.0031
X3.9418Y-2.7916
X3.9421Y-2.8142
X3.9563Y-3.2457
X3.9791Y-3.2465
X3.9949Y-2.9555
X3.9949Y-2.9772
X4.0185Y-2.6642
X4.0224Y-3.0012
X4.0224Y-2.9724
X4.1059Y-2.7882
X4.1063Y-2.8114
X4.211Y-2.7917
X4.2326Y-2.7666
X4.2557Y-2.7435
X4.3161Y-2.6169
X4.3165Y-2.6602
X4.317Y-2.6385
T2
X3.874Y-2.9941
X3.8783Y-2.8658
X4.3945Y-2.7508
X4.3949Y-2.798
X4.5079Y-2.4406
X4.6319Y-2.5748
T3
X3.2114Y-2.1311
X3.2272Y-2.1142
X3.2437Y-2.1307
T5
X3.7226Y-1.7953
X3.7226Y-1.8953
X3.7226Y-1.9953
X3.7226Y-2.0953
X3.7226Y-2.1953
X3.7226Y-2.2953
X3.7226Y-2.3953
X3.7226Y-2.4953
X3.8144Y-3.3835
X3.828Y-1.6453
X3.9144Y-3.3835
X3.928Y-1.6453
X4.0142Y-2.4953
X4.0144Y-3.3835
X4.028Y-1.6453
X4.1142Y-2.4953
X4.1144Y-3.3835
X4.128Y-1.6453
X4.2183Y-1.7953
X4.2183Y-1.8953
X4.2183Y-1.9953
X4.2183Y-2.0953
X4.2183Y-2.1953
X4.2183Y-2.2953
X4.2183Y-2.3953
X4.2183Y-2.4953
T6
X3.2535Y-1.6882
X3.4504Y-1.6882
T4
G00X3.1606Y-3.2321
M15
G01X3.1606Y-3.2754
M16
G05
G00X3.1606Y-3.4026
M15
G01X3.1606Y-3.4341
M16
G05
G00X3.5008Y-3.2321
M15
G01X3.5008Y-3.2754
M16
G05
G00X3.5008Y-3.4026
M15
G01X3.5008Y-3.4341
M16
G05
G00X4.4272Y-3.2321
M15
G01X4.4272Y-3.2754
M16
G05
G00X4.4272Y-3.4026
M15
G01X4.4272Y-3.4341
M16
G05
G00X4.7673Y-3.2321
M15
G01X4.7673Y-3.2754
M16
G05
G00X4.7673Y-3.4026
M15
G01X4.7673Y-3.4341
M16
G05
T0
M30
