%TF.GenerationSoftware,KiCad,Pcbnew,7.0.5*%
%TF.CreationDate,2023-08-28T18:13:52+08:00*%
%TF.ProjectId,TMC2209_TestBoard,544d4332-3230-4395-9f54-657374426f61,rev?*%
%TF.SameCoordinates,Original*%
%TF.FileFunction,Drillmap*%
%TF.FilePolarity,Positive*%
%FSLAX45Y45*%
G04 Gerber Fmt 4.5, Leading zero omitted, Abs format (unit mm)*
G04 Created by KiCad (PCBNEW 7.0.5) date 2023-08-28 18:13:52*
%MOMM*%
%LPD*%
G01*
G04 APERTURE LIST*
%ADD10C,0.100000*%
%ADD11C,0.200000*%
%ADD12C,0.065000*%
G04 APERTURE END LIST*
D10*
X7584000Y-8695000D02*
G75*
G03*
X7834000Y-8945000I250000J0D01*
G01*
X7934000Y-4195000D02*
G75*
G03*
X7934000Y-4195000I-100000J0D01*
G01*
X7584000Y-8695000D02*
X7584000Y-4195000D01*
X12334000Y-8945000D02*
G75*
G03*
X12584000Y-8695000I0J250000D01*
G01*
X12434000Y-4195000D02*
G75*
G03*
X12434000Y-4195000I-100000J0D01*
G01*
X7834000Y-3945000D02*
X12334000Y-3945000D01*
X12434000Y-8695000D02*
G75*
G03*
X12434000Y-8695000I-100000J0D01*
G01*
X12584000Y-4195000D02*
X12584000Y-8695000D01*
X12584000Y-4195000D02*
G75*
G03*
X12334000Y-3945000I-250000J0D01*
G01*
X12334000Y-8945000D02*
X7834000Y-8945000D01*
X7934000Y-8695000D02*
G75*
G03*
X7934000Y-8695000I-100000J0D01*
G01*
X7834000Y-3945000D02*
G75*
G03*
X7584000Y-4195000I0J-250000D01*
G01*
D11*
D12*
X8138500Y-8282000D02*
X8203500Y-8347000D01*
X8203500Y-8282000D02*
X8138500Y-8347000D01*
X8716500Y-8282000D02*
X8781500Y-8347000D01*
X8781500Y-8282000D02*
X8716500Y-8347000D01*
X11355500Y-8282000D02*
X11420500Y-8347000D01*
X11420500Y-8282000D02*
X11355500Y-8347000D01*
X11933500Y-8282000D02*
X11998500Y-8347000D01*
X11998500Y-8282000D02*
X11933500Y-8347000D01*
D11*
X7839777Y-9261484D02*
X7839777Y-9061484D01*
X7839777Y-9061484D02*
X7887396Y-9061484D01*
X7887396Y-9061484D02*
X7915967Y-9071008D01*
X7915967Y-9071008D02*
X7935015Y-9090055D01*
X7935015Y-9090055D02*
X7944539Y-9109103D01*
X7944539Y-9109103D02*
X7954062Y-9147198D01*
X7954062Y-9147198D02*
X7954062Y-9175770D01*
X7954062Y-9175770D02*
X7944539Y-9213865D01*
X7944539Y-9213865D02*
X7935015Y-9232912D01*
X7935015Y-9232912D02*
X7915967Y-9251960D01*
X7915967Y-9251960D02*
X7887396Y-9261484D01*
X7887396Y-9261484D02*
X7839777Y-9261484D01*
X8039777Y-9261484D02*
X8039777Y-9128150D01*
X8039777Y-9166246D02*
X8049301Y-9147198D01*
X8049301Y-9147198D02*
X8058824Y-9137674D01*
X8058824Y-9137674D02*
X8077872Y-9128150D01*
X8077872Y-9128150D02*
X8096920Y-9128150D01*
X8163586Y-9261484D02*
X8163586Y-9128150D01*
X8163586Y-9061484D02*
X8154062Y-9071008D01*
X8154062Y-9071008D02*
X8163586Y-9080531D01*
X8163586Y-9080531D02*
X8173110Y-9071008D01*
X8173110Y-9071008D02*
X8163586Y-9061484D01*
X8163586Y-9061484D02*
X8163586Y-9080531D01*
X8287396Y-9261484D02*
X8268348Y-9251960D01*
X8268348Y-9251960D02*
X8258824Y-9232912D01*
X8258824Y-9232912D02*
X8258824Y-9061484D01*
X8392158Y-9261484D02*
X8373110Y-9251960D01*
X8373110Y-9251960D02*
X8363586Y-9232912D01*
X8363586Y-9232912D02*
X8363586Y-9061484D01*
X8620729Y-9261484D02*
X8620729Y-9061484D01*
X8620729Y-9061484D02*
X8687396Y-9204341D01*
X8687396Y-9204341D02*
X8754063Y-9061484D01*
X8754063Y-9061484D02*
X8754063Y-9261484D01*
X8935015Y-9261484D02*
X8935015Y-9156722D01*
X8935015Y-9156722D02*
X8925491Y-9137674D01*
X8925491Y-9137674D02*
X8906444Y-9128150D01*
X8906444Y-9128150D02*
X8868348Y-9128150D01*
X8868348Y-9128150D02*
X8849301Y-9137674D01*
X8935015Y-9251960D02*
X8915967Y-9261484D01*
X8915967Y-9261484D02*
X8868348Y-9261484D01*
X8868348Y-9261484D02*
X8849301Y-9251960D01*
X8849301Y-9251960D02*
X8839777Y-9232912D01*
X8839777Y-9232912D02*
X8839777Y-9213865D01*
X8839777Y-9213865D02*
X8849301Y-9194817D01*
X8849301Y-9194817D02*
X8868348Y-9185293D01*
X8868348Y-9185293D02*
X8915967Y-9185293D01*
X8915967Y-9185293D02*
X8935015Y-9175770D01*
X9030253Y-9128150D02*
X9030253Y-9328150D01*
X9030253Y-9137674D02*
X9049301Y-9128150D01*
X9049301Y-9128150D02*
X9087396Y-9128150D01*
X9087396Y-9128150D02*
X9106444Y-9137674D01*
X9106444Y-9137674D02*
X9115967Y-9147198D01*
X9115967Y-9147198D02*
X9125491Y-9166246D01*
X9125491Y-9166246D02*
X9125491Y-9223389D01*
X9125491Y-9223389D02*
X9115967Y-9242436D01*
X9115967Y-9242436D02*
X9106444Y-9251960D01*
X9106444Y-9251960D02*
X9087396Y-9261484D01*
X9087396Y-9261484D02*
X9049301Y-9261484D01*
X9049301Y-9261484D02*
X9030253Y-9251960D01*
X9211205Y-9242436D02*
X9220729Y-9251960D01*
X9220729Y-9251960D02*
X9211205Y-9261484D01*
X9211205Y-9261484D02*
X9201682Y-9251960D01*
X9201682Y-9251960D02*
X9211205Y-9242436D01*
X9211205Y-9242436D02*
X9211205Y-9261484D01*
X9211205Y-9137674D02*
X9220729Y-9147198D01*
X9220729Y-9147198D02*
X9211205Y-9156722D01*
X9211205Y-9156722D02*
X9201682Y-9147198D01*
X9201682Y-9147198D02*
X9211205Y-9137674D01*
X9211205Y-9137674D02*
X9211205Y-9156722D01*
D12*
X7514000Y-9557500D02*
X7579000Y-9622500D01*
X7579000Y-9557500D02*
X7514000Y-9622500D01*
D11*
X7877872Y-9481484D02*
X7896920Y-9481484D01*
X7896920Y-9481484D02*
X7915967Y-9491008D01*
X7915967Y-9491008D02*
X7925491Y-9500531D01*
X7925491Y-9500531D02*
X7935015Y-9519579D01*
X7935015Y-9519579D02*
X7944539Y-9557674D01*
X7944539Y-9557674D02*
X7944539Y-9605293D01*
X7944539Y-9605293D02*
X7935015Y-9643389D01*
X7935015Y-9643389D02*
X7925491Y-9662436D01*
X7925491Y-9662436D02*
X7915967Y-9671960D01*
X7915967Y-9671960D02*
X7896920Y-9681484D01*
X7896920Y-9681484D02*
X7877872Y-9681484D01*
X7877872Y-9681484D02*
X7858824Y-9671960D01*
X7858824Y-9671960D02*
X7849301Y-9662436D01*
X7849301Y-9662436D02*
X7839777Y-9643389D01*
X7839777Y-9643389D02*
X7830253Y-9605293D01*
X7830253Y-9605293D02*
X7830253Y-9557674D01*
X7830253Y-9557674D02*
X7839777Y-9519579D01*
X7839777Y-9519579D02*
X7849301Y-9500531D01*
X7849301Y-9500531D02*
X7858824Y-9491008D01*
X7858824Y-9491008D02*
X7877872Y-9481484D01*
X8030253Y-9662436D02*
X8039777Y-9671960D01*
X8039777Y-9671960D02*
X8030253Y-9681484D01*
X8030253Y-9681484D02*
X8020729Y-9671960D01*
X8020729Y-9671960D02*
X8030253Y-9662436D01*
X8030253Y-9662436D02*
X8030253Y-9681484D01*
X8211205Y-9481484D02*
X8173110Y-9481484D01*
X8173110Y-9481484D02*
X8154062Y-9491008D01*
X8154062Y-9491008D02*
X8144539Y-9500531D01*
X8144539Y-9500531D02*
X8125491Y-9529103D01*
X8125491Y-9529103D02*
X8115967Y-9567198D01*
X8115967Y-9567198D02*
X8115967Y-9643389D01*
X8115967Y-9643389D02*
X8125491Y-9662436D01*
X8125491Y-9662436D02*
X8135015Y-9671960D01*
X8135015Y-9671960D02*
X8154062Y-9681484D01*
X8154062Y-9681484D02*
X8192158Y-9681484D01*
X8192158Y-9681484D02*
X8211205Y-9671960D01*
X8211205Y-9671960D02*
X8220729Y-9662436D01*
X8220729Y-9662436D02*
X8230253Y-9643389D01*
X8230253Y-9643389D02*
X8230253Y-9595770D01*
X8230253Y-9595770D02*
X8220729Y-9576722D01*
X8220729Y-9576722D02*
X8211205Y-9567198D01*
X8211205Y-9567198D02*
X8192158Y-9557674D01*
X8192158Y-9557674D02*
X8154062Y-9557674D01*
X8154062Y-9557674D02*
X8135015Y-9567198D01*
X8135015Y-9567198D02*
X8125491Y-9576722D01*
X8125491Y-9576722D02*
X8115967Y-9595770D01*
X8411205Y-9481484D02*
X8315967Y-9481484D01*
X8315967Y-9481484D02*
X8306443Y-9576722D01*
X8306443Y-9576722D02*
X8315967Y-9567198D01*
X8315967Y-9567198D02*
X8335015Y-9557674D01*
X8335015Y-9557674D02*
X8382634Y-9557674D01*
X8382634Y-9557674D02*
X8401682Y-9567198D01*
X8401682Y-9567198D02*
X8411205Y-9576722D01*
X8411205Y-9576722D02*
X8420729Y-9595770D01*
X8420729Y-9595770D02*
X8420729Y-9643389D01*
X8420729Y-9643389D02*
X8411205Y-9662436D01*
X8411205Y-9662436D02*
X8401682Y-9671960D01*
X8401682Y-9671960D02*
X8382634Y-9681484D01*
X8382634Y-9681484D02*
X8335015Y-9681484D01*
X8335015Y-9681484D02*
X8315967Y-9671960D01*
X8315967Y-9671960D02*
X8306443Y-9662436D01*
X8544539Y-9481484D02*
X8563586Y-9481484D01*
X8563586Y-9481484D02*
X8582634Y-9491008D01*
X8582634Y-9491008D02*
X8592158Y-9500531D01*
X8592158Y-9500531D02*
X8601682Y-9519579D01*
X8601682Y-9519579D02*
X8611205Y-9557674D01*
X8611205Y-9557674D02*
X8611205Y-9605293D01*
X8611205Y-9605293D02*
X8601682Y-9643389D01*
X8601682Y-9643389D02*
X8592158Y-9662436D01*
X8592158Y-9662436D02*
X8582634Y-9671960D01*
X8582634Y-9671960D02*
X8563586Y-9681484D01*
X8563586Y-9681484D02*
X8544539Y-9681484D01*
X8544539Y-9681484D02*
X8525491Y-9671960D01*
X8525491Y-9671960D02*
X8515967Y-9662436D01*
X8515967Y-9662436D02*
X8506444Y-9643389D01*
X8506444Y-9643389D02*
X8496920Y-9605293D01*
X8496920Y-9605293D02*
X8496920Y-9557674D01*
X8496920Y-9557674D02*
X8506444Y-9519579D01*
X8506444Y-9519579D02*
X8515967Y-9500531D01*
X8515967Y-9500531D02*
X8525491Y-9491008D01*
X8525491Y-9491008D02*
X8544539Y-9481484D01*
X8696920Y-9681484D02*
X8696920Y-9548150D01*
X8696920Y-9567198D02*
X8706444Y-9557674D01*
X8706444Y-9557674D02*
X8725491Y-9548150D01*
X8725491Y-9548150D02*
X8754063Y-9548150D01*
X8754063Y-9548150D02*
X8773110Y-9557674D01*
X8773110Y-9557674D02*
X8782634Y-9576722D01*
X8782634Y-9576722D02*
X8782634Y-9681484D01*
X8782634Y-9576722D02*
X8792158Y-9557674D01*
X8792158Y-9557674D02*
X8811205Y-9548150D01*
X8811205Y-9548150D02*
X8839777Y-9548150D01*
X8839777Y-9548150D02*
X8858825Y-9557674D01*
X8858825Y-9557674D02*
X8868348Y-9576722D01*
X8868348Y-9576722D02*
X8868348Y-9681484D01*
X8963586Y-9681484D02*
X8963586Y-9548150D01*
X8963586Y-9567198D02*
X8973110Y-9557674D01*
X8973110Y-9557674D02*
X8992158Y-9548150D01*
X8992158Y-9548150D02*
X9020729Y-9548150D01*
X9020729Y-9548150D02*
X9039777Y-9557674D01*
X9039777Y-9557674D02*
X9049301Y-9576722D01*
X9049301Y-9576722D02*
X9049301Y-9681484D01*
X9049301Y-9576722D02*
X9058825Y-9557674D01*
X9058825Y-9557674D02*
X9077872Y-9548150D01*
X9077872Y-9548150D02*
X9106444Y-9548150D01*
X9106444Y-9548150D02*
X9125491Y-9557674D01*
X9125491Y-9557674D02*
X9135015Y-9576722D01*
X9135015Y-9576722D02*
X9135015Y-9681484D01*
X9525491Y-9471960D02*
X9354063Y-9729103D01*
X9782634Y-9481484D02*
X9801682Y-9481484D01*
X9801682Y-9481484D02*
X9820729Y-9491008D01*
X9820729Y-9491008D02*
X9830253Y-9500531D01*
X9830253Y-9500531D02*
X9839777Y-9519579D01*
X9839777Y-9519579D02*
X9849301Y-9557674D01*
X9849301Y-9557674D02*
X9849301Y-9605293D01*
X9849301Y-9605293D02*
X9839777Y-9643389D01*
X9839777Y-9643389D02*
X9830253Y-9662436D01*
X9830253Y-9662436D02*
X9820729Y-9671960D01*
X9820729Y-9671960D02*
X9801682Y-9681484D01*
X9801682Y-9681484D02*
X9782634Y-9681484D01*
X9782634Y-9681484D02*
X9763587Y-9671960D01*
X9763587Y-9671960D02*
X9754063Y-9662436D01*
X9754063Y-9662436D02*
X9744539Y-9643389D01*
X9744539Y-9643389D02*
X9735015Y-9605293D01*
X9735015Y-9605293D02*
X9735015Y-9557674D01*
X9735015Y-9557674D02*
X9744539Y-9519579D01*
X9744539Y-9519579D02*
X9754063Y-9500531D01*
X9754063Y-9500531D02*
X9763587Y-9491008D01*
X9763587Y-9491008D02*
X9782634Y-9481484D01*
X9935015Y-9662436D02*
X9944539Y-9671960D01*
X9944539Y-9671960D02*
X9935015Y-9681484D01*
X9935015Y-9681484D02*
X9925491Y-9671960D01*
X9925491Y-9671960D02*
X9935015Y-9662436D01*
X9935015Y-9662436D02*
X9935015Y-9681484D01*
X10068348Y-9481484D02*
X10087396Y-9481484D01*
X10087396Y-9481484D02*
X10106444Y-9491008D01*
X10106444Y-9491008D02*
X10115968Y-9500531D01*
X10115968Y-9500531D02*
X10125491Y-9519579D01*
X10125491Y-9519579D02*
X10135015Y-9557674D01*
X10135015Y-9557674D02*
X10135015Y-9605293D01*
X10135015Y-9605293D02*
X10125491Y-9643389D01*
X10125491Y-9643389D02*
X10115968Y-9662436D01*
X10115968Y-9662436D02*
X10106444Y-9671960D01*
X10106444Y-9671960D02*
X10087396Y-9681484D01*
X10087396Y-9681484D02*
X10068348Y-9681484D01*
X10068348Y-9681484D02*
X10049301Y-9671960D01*
X10049301Y-9671960D02*
X10039777Y-9662436D01*
X10039777Y-9662436D02*
X10030253Y-9643389D01*
X10030253Y-9643389D02*
X10020729Y-9605293D01*
X10020729Y-9605293D02*
X10020729Y-9557674D01*
X10020729Y-9557674D02*
X10030253Y-9519579D01*
X10030253Y-9519579D02*
X10039777Y-9500531D01*
X10039777Y-9500531D02*
X10049301Y-9491008D01*
X10049301Y-9491008D02*
X10068348Y-9481484D01*
X10211206Y-9500531D02*
X10220729Y-9491008D01*
X10220729Y-9491008D02*
X10239777Y-9481484D01*
X10239777Y-9481484D02*
X10287396Y-9481484D01*
X10287396Y-9481484D02*
X10306444Y-9491008D01*
X10306444Y-9491008D02*
X10315968Y-9500531D01*
X10315968Y-9500531D02*
X10325491Y-9519579D01*
X10325491Y-9519579D02*
X10325491Y-9538627D01*
X10325491Y-9538627D02*
X10315968Y-9567198D01*
X10315968Y-9567198D02*
X10201682Y-9681484D01*
X10201682Y-9681484D02*
X10325491Y-9681484D01*
X10506444Y-9481484D02*
X10411206Y-9481484D01*
X10411206Y-9481484D02*
X10401682Y-9576722D01*
X10401682Y-9576722D02*
X10411206Y-9567198D01*
X10411206Y-9567198D02*
X10430253Y-9557674D01*
X10430253Y-9557674D02*
X10477872Y-9557674D01*
X10477872Y-9557674D02*
X10496920Y-9567198D01*
X10496920Y-9567198D02*
X10506444Y-9576722D01*
X10506444Y-9576722D02*
X10515968Y-9595770D01*
X10515968Y-9595770D02*
X10515968Y-9643389D01*
X10515968Y-9643389D02*
X10506444Y-9662436D01*
X10506444Y-9662436D02*
X10496920Y-9671960D01*
X10496920Y-9671960D02*
X10477872Y-9681484D01*
X10477872Y-9681484D02*
X10430253Y-9681484D01*
X10430253Y-9681484D02*
X10411206Y-9671960D01*
X10411206Y-9671960D02*
X10401682Y-9662436D01*
X10687396Y-9481484D02*
X10649301Y-9481484D01*
X10649301Y-9481484D02*
X10630253Y-9491008D01*
X10630253Y-9491008D02*
X10620729Y-9500531D01*
X10620729Y-9500531D02*
X10601682Y-9529103D01*
X10601682Y-9529103D02*
X10592158Y-9567198D01*
X10592158Y-9567198D02*
X10592158Y-9643389D01*
X10592158Y-9643389D02*
X10601682Y-9662436D01*
X10601682Y-9662436D02*
X10611206Y-9671960D01*
X10611206Y-9671960D02*
X10630253Y-9681484D01*
X10630253Y-9681484D02*
X10668349Y-9681484D01*
X10668349Y-9681484D02*
X10687396Y-9671960D01*
X10687396Y-9671960D02*
X10696920Y-9662436D01*
X10696920Y-9662436D02*
X10706444Y-9643389D01*
X10706444Y-9643389D02*
X10706444Y-9595770D01*
X10706444Y-9595770D02*
X10696920Y-9576722D01*
X10696920Y-9576722D02*
X10687396Y-9567198D01*
X10687396Y-9567198D02*
X10668349Y-9557674D01*
X10668349Y-9557674D02*
X10630253Y-9557674D01*
X10630253Y-9557674D02*
X10611206Y-9567198D01*
X10611206Y-9567198D02*
X10601682Y-9576722D01*
X10601682Y-9576722D02*
X10592158Y-9595770D01*
X10782634Y-9481484D02*
X10782634Y-9519579D01*
X10858825Y-9481484D02*
X10858825Y-9519579D01*
X11154063Y-9757674D02*
X11144539Y-9748150D01*
X11144539Y-9748150D02*
X11125491Y-9719579D01*
X11125491Y-9719579D02*
X11115968Y-9700531D01*
X11115968Y-9700531D02*
X11106444Y-9671960D01*
X11106444Y-9671960D02*
X11096920Y-9624341D01*
X11096920Y-9624341D02*
X11096920Y-9586246D01*
X11096920Y-9586246D02*
X11106444Y-9538627D01*
X11106444Y-9538627D02*
X11115968Y-9510055D01*
X11115968Y-9510055D02*
X11125491Y-9491008D01*
X11125491Y-9491008D02*
X11144539Y-9462436D01*
X11144539Y-9462436D02*
X11154063Y-9452912D01*
X11315968Y-9548150D02*
X11315968Y-9681484D01*
X11268348Y-9471960D02*
X11220729Y-9614817D01*
X11220729Y-9614817D02*
X11344539Y-9614817D01*
X11573110Y-9681484D02*
X11573110Y-9481484D01*
X11658825Y-9681484D02*
X11658825Y-9576722D01*
X11658825Y-9576722D02*
X11649301Y-9557674D01*
X11649301Y-9557674D02*
X11630253Y-9548150D01*
X11630253Y-9548150D02*
X11601682Y-9548150D01*
X11601682Y-9548150D02*
X11582634Y-9557674D01*
X11582634Y-9557674D02*
X11573110Y-9567198D01*
X11782634Y-9681484D02*
X11763587Y-9671960D01*
X11763587Y-9671960D02*
X11754063Y-9662436D01*
X11754063Y-9662436D02*
X11744539Y-9643389D01*
X11744539Y-9643389D02*
X11744539Y-9586246D01*
X11744539Y-9586246D02*
X11754063Y-9567198D01*
X11754063Y-9567198D02*
X11763587Y-9557674D01*
X11763587Y-9557674D02*
X11782634Y-9548150D01*
X11782634Y-9548150D02*
X11811206Y-9548150D01*
X11811206Y-9548150D02*
X11830253Y-9557674D01*
X11830253Y-9557674D02*
X11839777Y-9567198D01*
X11839777Y-9567198D02*
X11849301Y-9586246D01*
X11849301Y-9586246D02*
X11849301Y-9643389D01*
X11849301Y-9643389D02*
X11839777Y-9662436D01*
X11839777Y-9662436D02*
X11830253Y-9671960D01*
X11830253Y-9671960D02*
X11811206Y-9681484D01*
X11811206Y-9681484D02*
X11782634Y-9681484D01*
X11963587Y-9681484D02*
X11944539Y-9671960D01*
X11944539Y-9671960D02*
X11935015Y-9652912D01*
X11935015Y-9652912D02*
X11935015Y-9481484D01*
X12115968Y-9671960D02*
X12096920Y-9681484D01*
X12096920Y-9681484D02*
X12058825Y-9681484D01*
X12058825Y-9681484D02*
X12039777Y-9671960D01*
X12039777Y-9671960D02*
X12030253Y-9652912D01*
X12030253Y-9652912D02*
X12030253Y-9576722D01*
X12030253Y-9576722D02*
X12039777Y-9557674D01*
X12039777Y-9557674D02*
X12058825Y-9548150D01*
X12058825Y-9548150D02*
X12096920Y-9548150D01*
X12096920Y-9548150D02*
X12115968Y-9557674D01*
X12115968Y-9557674D02*
X12125491Y-9576722D01*
X12125491Y-9576722D02*
X12125491Y-9595770D01*
X12125491Y-9595770D02*
X12030253Y-9614817D01*
X12201682Y-9671960D02*
X12220730Y-9681484D01*
X12220730Y-9681484D02*
X12258825Y-9681484D01*
X12258825Y-9681484D02*
X12277872Y-9671960D01*
X12277872Y-9671960D02*
X12287396Y-9652912D01*
X12287396Y-9652912D02*
X12287396Y-9643389D01*
X12287396Y-9643389D02*
X12277872Y-9624341D01*
X12277872Y-9624341D02*
X12258825Y-9614817D01*
X12258825Y-9614817D02*
X12230253Y-9614817D01*
X12230253Y-9614817D02*
X12211206Y-9605293D01*
X12211206Y-9605293D02*
X12201682Y-9586246D01*
X12201682Y-9586246D02*
X12201682Y-9576722D01*
X12201682Y-9576722D02*
X12211206Y-9557674D01*
X12211206Y-9557674D02*
X12230253Y-9548150D01*
X12230253Y-9548150D02*
X12258825Y-9548150D01*
X12258825Y-9548150D02*
X12277872Y-9557674D01*
X12354063Y-9757674D02*
X12363587Y-9748150D01*
X12363587Y-9748150D02*
X12382634Y-9719579D01*
X12382634Y-9719579D02*
X12392158Y-9700531D01*
X12392158Y-9700531D02*
X12401682Y-9671960D01*
X12401682Y-9671960D02*
X12411206Y-9624341D01*
X12411206Y-9624341D02*
X12411206Y-9586246D01*
X12411206Y-9586246D02*
X12401682Y-9538627D01*
X12401682Y-9538627D02*
X12392158Y-9510055D01*
X12392158Y-9510055D02*
X12382634Y-9491008D01*
X12382634Y-9491008D02*
X12363587Y-9462436D01*
X12363587Y-9462436D02*
X12354063Y-9452912D01*
X12715968Y-9757674D02*
X12706444Y-9748150D01*
X12706444Y-9748150D02*
X12687396Y-9719579D01*
X12687396Y-9719579D02*
X12677872Y-9700531D01*
X12677872Y-9700531D02*
X12668349Y-9671960D01*
X12668349Y-9671960D02*
X12658825Y-9624341D01*
X12658825Y-9624341D02*
X12658825Y-9586246D01*
X12658825Y-9586246D02*
X12668349Y-9538627D01*
X12668349Y-9538627D02*
X12677872Y-9510055D01*
X12677872Y-9510055D02*
X12687396Y-9491008D01*
X12687396Y-9491008D02*
X12706444Y-9462436D01*
X12706444Y-9462436D02*
X12715968Y-9452912D01*
X12792158Y-9548150D02*
X12792158Y-9681484D01*
X12792158Y-9567198D02*
X12801682Y-9557674D01*
X12801682Y-9557674D02*
X12820730Y-9548150D01*
X12820730Y-9548150D02*
X12849301Y-9548150D01*
X12849301Y-9548150D02*
X12868349Y-9557674D01*
X12868349Y-9557674D02*
X12877872Y-9576722D01*
X12877872Y-9576722D02*
X12877872Y-9681484D01*
X13001682Y-9681484D02*
X12982634Y-9671960D01*
X12982634Y-9671960D02*
X12973111Y-9662436D01*
X12973111Y-9662436D02*
X12963587Y-9643389D01*
X12963587Y-9643389D02*
X12963587Y-9586246D01*
X12963587Y-9586246D02*
X12973111Y-9567198D01*
X12973111Y-9567198D02*
X12982634Y-9557674D01*
X12982634Y-9557674D02*
X13001682Y-9548150D01*
X13001682Y-9548150D02*
X13030253Y-9548150D01*
X13030253Y-9548150D02*
X13049301Y-9557674D01*
X13049301Y-9557674D02*
X13058825Y-9567198D01*
X13058825Y-9567198D02*
X13068349Y-9586246D01*
X13068349Y-9586246D02*
X13068349Y-9643389D01*
X13068349Y-9643389D02*
X13058825Y-9662436D01*
X13058825Y-9662436D02*
X13049301Y-9671960D01*
X13049301Y-9671960D02*
X13030253Y-9681484D01*
X13030253Y-9681484D02*
X13001682Y-9681484D01*
X13125492Y-9548150D02*
X13201682Y-9548150D01*
X13154063Y-9481484D02*
X13154063Y-9652912D01*
X13154063Y-9652912D02*
X13163587Y-9671960D01*
X13163587Y-9671960D02*
X13182634Y-9681484D01*
X13182634Y-9681484D02*
X13201682Y-9681484D01*
X13420730Y-9548150D02*
X13420730Y-9748150D01*
X13420730Y-9557674D02*
X13439777Y-9548150D01*
X13439777Y-9548150D02*
X13477873Y-9548150D01*
X13477873Y-9548150D02*
X13496920Y-9557674D01*
X13496920Y-9557674D02*
X13506444Y-9567198D01*
X13506444Y-9567198D02*
X13515968Y-9586246D01*
X13515968Y-9586246D02*
X13515968Y-9643389D01*
X13515968Y-9643389D02*
X13506444Y-9662436D01*
X13506444Y-9662436D02*
X13496920Y-9671960D01*
X13496920Y-9671960D02*
X13477873Y-9681484D01*
X13477873Y-9681484D02*
X13439777Y-9681484D01*
X13439777Y-9681484D02*
X13420730Y-9671960D01*
X13630253Y-9681484D02*
X13611206Y-9671960D01*
X13611206Y-9671960D02*
X13601682Y-9652912D01*
X13601682Y-9652912D02*
X13601682Y-9481484D01*
X13792158Y-9681484D02*
X13792158Y-9576722D01*
X13792158Y-9576722D02*
X13782634Y-9557674D01*
X13782634Y-9557674D02*
X13763587Y-9548150D01*
X13763587Y-9548150D02*
X13725492Y-9548150D01*
X13725492Y-9548150D02*
X13706444Y-9557674D01*
X13792158Y-9671960D02*
X13773111Y-9681484D01*
X13773111Y-9681484D02*
X13725492Y-9681484D01*
X13725492Y-9681484D02*
X13706444Y-9671960D01*
X13706444Y-9671960D02*
X13696920Y-9652912D01*
X13696920Y-9652912D02*
X13696920Y-9633865D01*
X13696920Y-9633865D02*
X13706444Y-9614817D01*
X13706444Y-9614817D02*
X13725492Y-9605293D01*
X13725492Y-9605293D02*
X13773111Y-9605293D01*
X13773111Y-9605293D02*
X13792158Y-9595770D01*
X13858825Y-9548150D02*
X13935015Y-9548150D01*
X13887396Y-9481484D02*
X13887396Y-9652912D01*
X13887396Y-9652912D02*
X13896920Y-9671960D01*
X13896920Y-9671960D02*
X13915968Y-9681484D01*
X13915968Y-9681484D02*
X13935015Y-9681484D01*
X14077873Y-9671960D02*
X14058825Y-9681484D01*
X14058825Y-9681484D02*
X14020730Y-9681484D01*
X14020730Y-9681484D02*
X14001682Y-9671960D01*
X14001682Y-9671960D02*
X13992158Y-9652912D01*
X13992158Y-9652912D02*
X13992158Y-9576722D01*
X13992158Y-9576722D02*
X14001682Y-9557674D01*
X14001682Y-9557674D02*
X14020730Y-9548150D01*
X14020730Y-9548150D02*
X14058825Y-9548150D01*
X14058825Y-9548150D02*
X14077873Y-9557674D01*
X14077873Y-9557674D02*
X14087396Y-9576722D01*
X14087396Y-9576722D02*
X14087396Y-9595770D01*
X14087396Y-9595770D02*
X13992158Y-9614817D01*
X14258825Y-9681484D02*
X14258825Y-9481484D01*
X14258825Y-9671960D02*
X14239777Y-9681484D01*
X14239777Y-9681484D02*
X14201682Y-9681484D01*
X14201682Y-9681484D02*
X14182634Y-9671960D01*
X14182634Y-9671960D02*
X14173111Y-9662436D01*
X14173111Y-9662436D02*
X14163587Y-9643389D01*
X14163587Y-9643389D02*
X14163587Y-9586246D01*
X14163587Y-9586246D02*
X14173111Y-9567198D01*
X14173111Y-9567198D02*
X14182634Y-9557674D01*
X14182634Y-9557674D02*
X14201682Y-9548150D01*
X14201682Y-9548150D02*
X14239777Y-9548150D01*
X14239777Y-9548150D02*
X14258825Y-9557674D01*
X14335015Y-9757674D02*
X14344539Y-9748150D01*
X14344539Y-9748150D02*
X14363587Y-9719579D01*
X14363587Y-9719579D02*
X14373111Y-9700531D01*
X14373111Y-9700531D02*
X14382634Y-9671960D01*
X14382634Y-9671960D02*
X14392158Y-9624341D01*
X14392158Y-9624341D02*
X14392158Y-9586246D01*
X14392158Y-9586246D02*
X14382634Y-9538627D01*
X14382634Y-9538627D02*
X14373111Y-9510055D01*
X14373111Y-9510055D02*
X14363587Y-9491008D01*
X14363587Y-9491008D02*
X14344539Y-9462436D01*
X14344539Y-9462436D02*
X14335015Y-9452912D01*
M02*
