%TF.GenerationSoftware,KiCad,Pcbnew,7.0.5*%
%TF.CreationDate,2023-08-17T05:27:01+08:00*%
%TF.ProjectId,TMC2209_TestBoard,544d4332-3230-4395-9f54-657374426f61,rev?*%
%TF.SameCoordinates,Original*%
%TF.FileFunction,Drillmap*%
%TF.FilePolarity,Positive*%
%FSLAX45Y45*%
G04 Gerber Fmt 4.5, Leading zero omitted, Abs format (unit mm)*
G04 Created by KiCad (PCBNEW 7.0.5) date 2023-08-17 05:27:01*
%MOMM*%
%LPD*%
G01*
G04 APERTURE LIST*
%ADD10C,0.100000*%
%ADD11C,0.200000*%
%ADD12C,0.025000*%
%ADD13C,0.030000*%
%ADD14C,0.040000*%
%ADD15C,0.060000*%
%ADD16C,0.180000*%
G04 APERTURE END LIST*
D10*
X7934000Y-4195000D02*
G75*
G03*
X7934000Y-4195000I-100000J0D01*
G01*
X7934000Y-8695000D02*
G75*
G03*
X7934000Y-8695000I-100000J0D01*
G01*
X12434000Y-8695000D02*
G75*
G03*
X12434000Y-8695000I-100000J0D01*
G01*
X12434000Y-4195000D02*
G75*
G03*
X12434000Y-4195000I-100000J0D01*
G01*
X7584000Y-8695000D02*
G75*
G03*
X7834000Y-8945000I250000J0D01*
G01*
X7584000Y-8695000D02*
X7584000Y-4195000D01*
X12334000Y-8945000D02*
G75*
G03*
X12584000Y-8695000I0J250000D01*
G01*
X7834000Y-3945000D02*
X12334000Y-3945000D01*
X12584000Y-4195000D02*
X12584000Y-8695000D01*
X12584000Y-4195000D02*
G75*
G03*
X12334000Y-3945000I-250000J0D01*
G01*
X12334000Y-8945000D02*
X7834000Y-8945000D01*
X7834000Y-3945000D02*
G75*
G03*
X7584000Y-4195000I0J-250000D01*
G01*
D11*
D12*
X9940500Y-7615500D02*
X9965500Y-7640500D01*
X9965500Y-7615500D02*
X9940500Y-7640500D01*
X9999708Y-7078210D02*
X10024708Y-7103210D01*
X10024708Y-7078210D02*
X9999708Y-7103210D01*
X10000500Y-7135500D02*
X10025500Y-7160500D01*
X10025500Y-7135500D02*
X10000500Y-7160500D01*
X10036500Y-8231500D02*
X10061500Y-8256500D01*
X10061500Y-8231500D02*
X10036500Y-8256500D01*
X10094500Y-8233500D02*
X10119500Y-8258500D01*
X10119500Y-8233500D02*
X10094500Y-8258500D01*
X10134450Y-7494500D02*
X10159450Y-7519500D01*
X10159450Y-7494500D02*
X10134450Y-7519500D01*
X10134450Y-7549500D02*
X10159450Y-7574500D01*
X10159450Y-7549500D02*
X10134450Y-7574500D01*
X10194500Y-6754500D02*
X10219500Y-6779500D01*
X10219500Y-6754500D02*
X10194500Y-6779500D01*
X10204500Y-7610500D02*
X10229500Y-7635500D01*
X10229500Y-7610500D02*
X10204500Y-7635500D01*
X10204508Y-7537508D02*
X10229508Y-7562508D01*
X10229508Y-7537508D02*
X10204508Y-7562508D01*
X10416500Y-7069500D02*
X10441500Y-7094500D01*
X10441500Y-7069500D02*
X10416500Y-7094500D01*
X10417500Y-7128500D02*
X10442500Y-7153500D01*
X10442500Y-7128500D02*
X10417500Y-7153500D01*
X10683500Y-7078500D02*
X10708500Y-7103500D01*
X10708500Y-7078500D02*
X10683500Y-7103500D01*
X10738267Y-7014586D02*
X10763267Y-7039586D01*
X10763267Y-7014586D02*
X10738267Y-7039586D01*
X10796927Y-6955927D02*
X10821927Y-6980927D01*
X10821927Y-6955927D02*
X10796927Y-6980927D01*
X10950500Y-6634500D02*
X10975500Y-6659500D01*
X10975500Y-6634500D02*
X10950500Y-6659500D01*
X10951301Y-6744339D02*
X10976301Y-6769339D01*
X10976301Y-6744339D02*
X10951301Y-6769339D01*
X10952696Y-6689406D02*
X10977696Y-6714406D01*
X10977696Y-6689406D02*
X10952696Y-6714406D01*
D13*
X9855000Y-7605000D02*
G75*
G03*
X9855000Y-7605000I-15000J0D01*
G01*
X9866000Y-7279050D02*
G75*
G03*
X9866000Y-7279050I-15000J0D01*
G01*
X11177000Y-6987000D02*
G75*
G03*
X11177000Y-6987000I-15000J0D01*
G01*
X11178000Y-7106950D02*
G75*
G03*
X11178000Y-7106950I-15000J0D01*
G01*
X11465000Y-6199000D02*
G75*
G03*
X11465000Y-6199000I-15000J0D01*
G01*
X11780000Y-6540000D02*
G75*
G03*
X11780000Y-6540000I-15000J0D01*
G01*
D14*
X8157000Y-5393000D02*
X8157000Y-5433000D01*
X8137000Y-5413000D02*
X8177000Y-5413000D01*
X8197000Y-5350000D02*
X8197000Y-5390000D01*
X8177000Y-5370000D02*
X8217000Y-5370000D01*
X8239000Y-5392000D02*
X8239000Y-5432000D01*
X8219000Y-5412000D02*
X8259000Y-5412000D01*
D15*
X8049213Y-8285713D02*
X8049213Y-8243287D01*
X8006787Y-8243287D01*
X8006787Y-8285713D01*
X8049213Y-8285713D01*
D11*
X7998000Y-8209500D02*
X7998000Y-8319500D01*
X7998000Y-8319500D02*
G75*
G03*
X8058000Y-8319500I30000J0D01*
G01*
X8058000Y-8319500D02*
X8058000Y-8209500D01*
X8058000Y-8209500D02*
G75*
G03*
X7998000Y-8209500I-30000J0D01*
G01*
D15*
X8049213Y-8703713D02*
X8049213Y-8661287D01*
X8006787Y-8661287D01*
X8006787Y-8703713D01*
X8049213Y-8703713D01*
D11*
X7998000Y-8642500D02*
X7998000Y-8722500D01*
X7998000Y-8722500D02*
G75*
G03*
X8058000Y-8722500I30000J0D01*
G01*
X8058000Y-8722500D02*
X8058000Y-8642500D01*
X8058000Y-8642500D02*
G75*
G03*
X7998000Y-8642500I-30000J0D01*
G01*
D15*
X8913213Y-8285713D02*
X8913213Y-8243287D01*
X8870787Y-8243287D01*
X8870787Y-8285713D01*
X8913213Y-8285713D01*
D11*
X8862000Y-8209500D02*
X8862000Y-8319500D01*
X8862000Y-8319500D02*
G75*
G03*
X8922000Y-8319500I30000J0D01*
G01*
X8922000Y-8319500D02*
X8922000Y-8209500D01*
X8922000Y-8209500D02*
G75*
G03*
X8862000Y-8209500I-30000J0D01*
G01*
D15*
X8913213Y-8703713D02*
X8913213Y-8661287D01*
X8870787Y-8661287D01*
X8870787Y-8703713D01*
X8913213Y-8703713D01*
D11*
X8862000Y-8642500D02*
X8862000Y-8722500D01*
X8862000Y-8722500D02*
G75*
G03*
X8922000Y-8722500I30000J0D01*
G01*
X8922000Y-8722500D02*
X8922000Y-8642500D01*
X8922000Y-8642500D02*
G75*
G03*
X8862000Y-8642500I-30000J0D01*
G01*
D15*
X11266213Y-8285713D02*
X11266213Y-8243287D01*
X11223787Y-8243287D01*
X11223787Y-8285713D01*
X11266213Y-8285713D01*
D11*
X11215000Y-8209500D02*
X11215000Y-8319500D01*
X11215000Y-8319500D02*
G75*
G03*
X11275000Y-8319500I30000J0D01*
G01*
X11275000Y-8319500D02*
X11275000Y-8209500D01*
X11275000Y-8209500D02*
G75*
G03*
X11215000Y-8209500I-30000J0D01*
G01*
D15*
X11266213Y-8703713D02*
X11266213Y-8661287D01*
X11223787Y-8661287D01*
X11223787Y-8703713D01*
X11266213Y-8703713D01*
D11*
X11215000Y-8642500D02*
X11215000Y-8722500D01*
X11215000Y-8722500D02*
G75*
G03*
X11275000Y-8722500I30000J0D01*
G01*
X11275000Y-8722500D02*
X11275000Y-8642500D01*
X11275000Y-8642500D02*
G75*
G03*
X11215000Y-8642500I-30000J0D01*
G01*
D15*
X12130213Y-8285713D02*
X12130213Y-8243287D01*
X12087787Y-8243287D01*
X12087787Y-8285713D01*
X12130213Y-8285713D01*
D11*
X12079000Y-8209500D02*
X12079000Y-8319500D01*
X12079000Y-8319500D02*
G75*
G03*
X12139000Y-8319500I30000J0D01*
G01*
X12139000Y-8319500D02*
X12139000Y-8209500D01*
X12139000Y-8209500D02*
G75*
G03*
X12079000Y-8209500I-30000J0D01*
G01*
D15*
X12130213Y-8703713D02*
X12130213Y-8661287D01*
X12087787Y-8661287D01*
X12087787Y-8703713D01*
X12130213Y-8703713D01*
D11*
X12079000Y-8642500D02*
X12079000Y-8722500D01*
X12079000Y-8722500D02*
G75*
G03*
X12139000Y-8722500I30000J0D01*
G01*
X12139000Y-8722500D02*
X12139000Y-8642500D01*
X12139000Y-8642500D02*
G75*
G03*
X12079000Y-8642500I-30000J0D01*
G01*
D10*
X9455500Y-4610000D02*
X9505500Y-4560000D01*
X9455500Y-4510000D01*
X9405500Y-4560000D01*
X9455500Y-4610000D01*
X9455500Y-4864000D02*
X9505500Y-4814000D01*
X9455500Y-4764000D01*
X9405500Y-4814000D01*
X9455500Y-4864000D01*
X9455500Y-5118000D02*
X9505500Y-5068000D01*
X9455500Y-5018000D01*
X9405500Y-5068000D01*
X9455500Y-5118000D01*
X9455500Y-5372000D02*
X9505500Y-5322000D01*
X9455500Y-5272000D01*
X9405500Y-5322000D01*
X9455500Y-5372000D01*
X9455500Y-5626000D02*
X9505500Y-5576000D01*
X9455500Y-5526000D01*
X9405500Y-5576000D01*
X9455500Y-5626000D01*
X9455500Y-5880000D02*
X9505500Y-5830000D01*
X9455500Y-5780000D01*
X9405500Y-5830000D01*
X9455500Y-5880000D01*
X9455500Y-6134000D02*
X9505500Y-6084000D01*
X9455500Y-6034000D01*
X9405500Y-6084000D01*
X9455500Y-6134000D01*
X9455500Y-6388000D02*
X9505500Y-6338000D01*
X9455500Y-6288000D01*
X9405500Y-6338000D01*
X9455500Y-6388000D01*
X9688500Y-8644000D02*
X9738500Y-8594000D01*
X9688500Y-8544000D01*
X9638500Y-8594000D01*
X9688500Y-8644000D01*
X9723000Y-4229000D02*
X9773000Y-4179000D01*
X9723000Y-4129000D01*
X9673000Y-4179000D01*
X9723000Y-4229000D01*
X9942500Y-8644000D02*
X9992500Y-8594000D01*
X9942500Y-8544000D01*
X9892500Y-8594000D01*
X9942500Y-8644000D01*
X9977000Y-4229000D02*
X10027000Y-4179000D01*
X9977000Y-4129000D01*
X9927000Y-4179000D01*
X9977000Y-4229000D01*
X10196000Y-6388000D02*
X10246000Y-6338000D01*
X10196000Y-6288000D01*
X10146000Y-6338000D01*
X10196000Y-6388000D01*
X10196500Y-8644000D02*
X10246500Y-8594000D01*
X10196500Y-8544000D01*
X10146500Y-8594000D01*
X10196500Y-8644000D01*
X10231000Y-4229000D02*
X10281000Y-4179000D01*
X10231000Y-4129000D01*
X10181000Y-4179000D01*
X10231000Y-4229000D01*
X10450000Y-6388000D02*
X10500000Y-6338000D01*
X10450000Y-6288000D01*
X10400000Y-6338000D01*
X10450000Y-6388000D01*
X10450500Y-8644000D02*
X10500500Y-8594000D01*
X10450500Y-8544000D01*
X10400500Y-8594000D01*
X10450500Y-8644000D01*
X10485000Y-4229000D02*
X10535000Y-4179000D01*
X10485000Y-4129000D01*
X10435000Y-4179000D01*
X10485000Y-4229000D01*
X10714500Y-4610000D02*
X10764500Y-4560000D01*
X10714500Y-4510000D01*
X10664500Y-4560000D01*
X10714500Y-4610000D01*
X10714500Y-4864000D02*
X10764500Y-4814000D01*
X10714500Y-4764000D01*
X10664500Y-4814000D01*
X10714500Y-4864000D01*
X10714500Y-5118000D02*
X10764500Y-5068000D01*
X10714500Y-5018000D01*
X10664500Y-5068000D01*
X10714500Y-5118000D01*
X10714500Y-5372000D02*
X10764500Y-5322000D01*
X10714500Y-5272000D01*
X10664500Y-5322000D01*
X10714500Y-5372000D01*
X10714500Y-5626000D02*
X10764500Y-5576000D01*
X10714500Y-5526000D01*
X10664500Y-5576000D01*
X10714500Y-5626000D01*
X10714500Y-5880000D02*
X10764500Y-5830000D01*
X10714500Y-5780000D01*
X10664500Y-5830000D01*
X10714500Y-5880000D01*
X10714500Y-6134000D02*
X10764500Y-6084000D01*
X10714500Y-6034000D01*
X10664500Y-6084000D01*
X10714500Y-6134000D01*
X10714500Y-6388000D02*
X10764500Y-6338000D01*
X10714500Y-6288000D01*
X10664500Y-6338000D01*
X10714500Y-6388000D01*
D16*
X8174000Y-4198000D02*
X8354000Y-4378000D01*
X8354000Y-4198000D02*
X8174000Y-4378000D01*
X8354000Y-4288000D02*
G75*
G03*
X8354000Y-4288000I-90000J0D01*
G01*
X8674000Y-4198000D02*
X8854000Y-4378000D01*
X8854000Y-4198000D02*
X8674000Y-4378000D01*
X8854000Y-4288000D02*
G75*
G03*
X8854000Y-4288000I-90000J0D01*
G01*
D11*
X7839777Y-9261484D02*
X7839777Y-9061484D01*
X7839777Y-9061484D02*
X7887396Y-9061484D01*
X7887396Y-9061484D02*
X7915967Y-9071008D01*
X7915967Y-9071008D02*
X7935015Y-9090055D01*
X7935015Y-9090055D02*
X7944539Y-9109103D01*
X7944539Y-9109103D02*
X7954062Y-9147198D01*
X7954062Y-9147198D02*
X7954062Y-9175770D01*
X7954062Y-9175770D02*
X7944539Y-9213865D01*
X7944539Y-9213865D02*
X7935015Y-9232912D01*
X7935015Y-9232912D02*
X7915967Y-9251960D01*
X7915967Y-9251960D02*
X7887396Y-9261484D01*
X7887396Y-9261484D02*
X7839777Y-9261484D01*
X8039777Y-9261484D02*
X8039777Y-9128150D01*
X8039777Y-9166246D02*
X8049301Y-9147198D01*
X8049301Y-9147198D02*
X8058824Y-9137674D01*
X8058824Y-9137674D02*
X8077872Y-9128150D01*
X8077872Y-9128150D02*
X8096920Y-9128150D01*
X8163586Y-9261484D02*
X8163586Y-9128150D01*
X8163586Y-9061484D02*
X8154062Y-9071008D01*
X8154062Y-9071008D02*
X8163586Y-9080531D01*
X8163586Y-9080531D02*
X8173110Y-9071008D01*
X8173110Y-9071008D02*
X8163586Y-9061484D01*
X8163586Y-9061484D02*
X8163586Y-9080531D01*
X8287396Y-9261484D02*
X8268348Y-9251960D01*
X8268348Y-9251960D02*
X8258824Y-9232912D01*
X8258824Y-9232912D02*
X8258824Y-9061484D01*
X8392158Y-9261484D02*
X8373110Y-9251960D01*
X8373110Y-9251960D02*
X8363586Y-9232912D01*
X8363586Y-9232912D02*
X8363586Y-9061484D01*
X8620729Y-9261484D02*
X8620729Y-9061484D01*
X8620729Y-9061484D02*
X8687396Y-9204341D01*
X8687396Y-9204341D02*
X8754063Y-9061484D01*
X8754063Y-9061484D02*
X8754063Y-9261484D01*
X8935015Y-9261484D02*
X8935015Y-9156722D01*
X8935015Y-9156722D02*
X8925491Y-9137674D01*
X8925491Y-9137674D02*
X8906444Y-9128150D01*
X8906444Y-9128150D02*
X8868348Y-9128150D01*
X8868348Y-9128150D02*
X8849301Y-9137674D01*
X8935015Y-9251960D02*
X8915967Y-9261484D01*
X8915967Y-9261484D02*
X8868348Y-9261484D01*
X8868348Y-9261484D02*
X8849301Y-9251960D01*
X8849301Y-9251960D02*
X8839777Y-9232912D01*
X8839777Y-9232912D02*
X8839777Y-9213865D01*
X8839777Y-9213865D02*
X8849301Y-9194817D01*
X8849301Y-9194817D02*
X8868348Y-9185293D01*
X8868348Y-9185293D02*
X8915967Y-9185293D01*
X8915967Y-9185293D02*
X8935015Y-9175770D01*
X9030253Y-9128150D02*
X9030253Y-9328150D01*
X9030253Y-9137674D02*
X9049301Y-9128150D01*
X9049301Y-9128150D02*
X9087396Y-9128150D01*
X9087396Y-9128150D02*
X9106444Y-9137674D01*
X9106444Y-9137674D02*
X9115967Y-9147198D01*
X9115967Y-9147198D02*
X9125491Y-9166246D01*
X9125491Y-9166246D02*
X9125491Y-9223389D01*
X9125491Y-9223389D02*
X9115967Y-9242436D01*
X9115967Y-9242436D02*
X9106444Y-9251960D01*
X9106444Y-9251960D02*
X9087396Y-9261484D01*
X9087396Y-9261484D02*
X9049301Y-9261484D01*
X9049301Y-9261484D02*
X9030253Y-9251960D01*
X9211205Y-9242436D02*
X9220729Y-9251960D01*
X9220729Y-9251960D02*
X9211205Y-9261484D01*
X9211205Y-9261484D02*
X9201682Y-9251960D01*
X9201682Y-9251960D02*
X9211205Y-9242436D01*
X9211205Y-9242436D02*
X9211205Y-9261484D01*
X9211205Y-9137674D02*
X9220729Y-9147198D01*
X9220729Y-9147198D02*
X9211205Y-9156722D01*
X9211205Y-9156722D02*
X9201682Y-9147198D01*
X9201682Y-9147198D02*
X9211205Y-9137674D01*
X9211205Y-9137674D02*
X9211205Y-9156722D01*
D12*
X7554000Y-9577500D02*
X7579000Y-9602500D01*
X7579000Y-9577500D02*
X7554000Y-9602500D01*
D11*
X7877872Y-9481484D02*
X7896920Y-9481484D01*
X7896920Y-9481484D02*
X7915967Y-9491008D01*
X7915967Y-9491008D02*
X7925491Y-9500531D01*
X7925491Y-9500531D02*
X7935015Y-9519579D01*
X7935015Y-9519579D02*
X7944539Y-9557674D01*
X7944539Y-9557674D02*
X7944539Y-9605293D01*
X7944539Y-9605293D02*
X7935015Y-9643389D01*
X7935015Y-9643389D02*
X7925491Y-9662436D01*
X7925491Y-9662436D02*
X7915967Y-9671960D01*
X7915967Y-9671960D02*
X7896920Y-9681484D01*
X7896920Y-9681484D02*
X7877872Y-9681484D01*
X7877872Y-9681484D02*
X7858824Y-9671960D01*
X7858824Y-9671960D02*
X7849301Y-9662436D01*
X7849301Y-9662436D02*
X7839777Y-9643389D01*
X7839777Y-9643389D02*
X7830253Y-9605293D01*
X7830253Y-9605293D02*
X7830253Y-9557674D01*
X7830253Y-9557674D02*
X7839777Y-9519579D01*
X7839777Y-9519579D02*
X7849301Y-9500531D01*
X7849301Y-9500531D02*
X7858824Y-9491008D01*
X7858824Y-9491008D02*
X7877872Y-9481484D01*
X8030253Y-9662436D02*
X8039777Y-9671960D01*
X8039777Y-9671960D02*
X8030253Y-9681484D01*
X8030253Y-9681484D02*
X8020729Y-9671960D01*
X8020729Y-9671960D02*
X8030253Y-9662436D01*
X8030253Y-9662436D02*
X8030253Y-9681484D01*
X8115967Y-9500531D02*
X8125491Y-9491008D01*
X8125491Y-9491008D02*
X8144539Y-9481484D01*
X8144539Y-9481484D02*
X8192158Y-9481484D01*
X8192158Y-9481484D02*
X8211205Y-9491008D01*
X8211205Y-9491008D02*
X8220729Y-9500531D01*
X8220729Y-9500531D02*
X8230253Y-9519579D01*
X8230253Y-9519579D02*
X8230253Y-9538627D01*
X8230253Y-9538627D02*
X8220729Y-9567198D01*
X8220729Y-9567198D02*
X8106443Y-9681484D01*
X8106443Y-9681484D02*
X8230253Y-9681484D01*
X8411205Y-9481484D02*
X8315967Y-9481484D01*
X8315967Y-9481484D02*
X8306443Y-9576722D01*
X8306443Y-9576722D02*
X8315967Y-9567198D01*
X8315967Y-9567198D02*
X8335015Y-9557674D01*
X8335015Y-9557674D02*
X8382634Y-9557674D01*
X8382634Y-9557674D02*
X8401682Y-9567198D01*
X8401682Y-9567198D02*
X8411205Y-9576722D01*
X8411205Y-9576722D02*
X8420729Y-9595770D01*
X8420729Y-9595770D02*
X8420729Y-9643389D01*
X8420729Y-9643389D02*
X8411205Y-9662436D01*
X8411205Y-9662436D02*
X8401682Y-9671960D01*
X8401682Y-9671960D02*
X8382634Y-9681484D01*
X8382634Y-9681484D02*
X8335015Y-9681484D01*
X8335015Y-9681484D02*
X8315967Y-9671960D01*
X8315967Y-9671960D02*
X8306443Y-9662436D01*
X8544539Y-9481484D02*
X8563586Y-9481484D01*
X8563586Y-9481484D02*
X8582634Y-9491008D01*
X8582634Y-9491008D02*
X8592158Y-9500531D01*
X8592158Y-9500531D02*
X8601682Y-9519579D01*
X8601682Y-9519579D02*
X8611205Y-9557674D01*
X8611205Y-9557674D02*
X8611205Y-9605293D01*
X8611205Y-9605293D02*
X8601682Y-9643389D01*
X8601682Y-9643389D02*
X8592158Y-9662436D01*
X8592158Y-9662436D02*
X8582634Y-9671960D01*
X8582634Y-9671960D02*
X8563586Y-9681484D01*
X8563586Y-9681484D02*
X8544539Y-9681484D01*
X8544539Y-9681484D02*
X8525491Y-9671960D01*
X8525491Y-9671960D02*
X8515967Y-9662436D01*
X8515967Y-9662436D02*
X8506444Y-9643389D01*
X8506444Y-9643389D02*
X8496920Y-9605293D01*
X8496920Y-9605293D02*
X8496920Y-9557674D01*
X8496920Y-9557674D02*
X8506444Y-9519579D01*
X8506444Y-9519579D02*
X8515967Y-9500531D01*
X8515967Y-9500531D02*
X8525491Y-9491008D01*
X8525491Y-9491008D02*
X8544539Y-9481484D01*
X8696920Y-9681484D02*
X8696920Y-9548150D01*
X8696920Y-9567198D02*
X8706444Y-9557674D01*
X8706444Y-9557674D02*
X8725491Y-9548150D01*
X8725491Y-9548150D02*
X8754063Y-9548150D01*
X8754063Y-9548150D02*
X8773110Y-9557674D01*
X8773110Y-9557674D02*
X8782634Y-9576722D01*
X8782634Y-9576722D02*
X8782634Y-9681484D01*
X8782634Y-9576722D02*
X8792158Y-9557674D01*
X8792158Y-9557674D02*
X8811205Y-9548150D01*
X8811205Y-9548150D02*
X8839777Y-9548150D01*
X8839777Y-9548150D02*
X8858825Y-9557674D01*
X8858825Y-9557674D02*
X8868348Y-9576722D01*
X8868348Y-9576722D02*
X8868348Y-9681484D01*
X8963586Y-9681484D02*
X8963586Y-9548150D01*
X8963586Y-9567198D02*
X8973110Y-9557674D01*
X8973110Y-9557674D02*
X8992158Y-9548150D01*
X8992158Y-9548150D02*
X9020729Y-9548150D01*
X9020729Y-9548150D02*
X9039777Y-9557674D01*
X9039777Y-9557674D02*
X9049301Y-9576722D01*
X9049301Y-9576722D02*
X9049301Y-9681484D01*
X9049301Y-9576722D02*
X9058825Y-9557674D01*
X9058825Y-9557674D02*
X9077872Y-9548150D01*
X9077872Y-9548150D02*
X9106444Y-9548150D01*
X9106444Y-9548150D02*
X9125491Y-9557674D01*
X9125491Y-9557674D02*
X9135015Y-9576722D01*
X9135015Y-9576722D02*
X9135015Y-9681484D01*
X9525491Y-9471960D02*
X9354063Y-9729103D01*
X9782634Y-9481484D02*
X9801682Y-9481484D01*
X9801682Y-9481484D02*
X9820729Y-9491008D01*
X9820729Y-9491008D02*
X9830253Y-9500531D01*
X9830253Y-9500531D02*
X9839777Y-9519579D01*
X9839777Y-9519579D02*
X9849301Y-9557674D01*
X9849301Y-9557674D02*
X9849301Y-9605293D01*
X9849301Y-9605293D02*
X9839777Y-9643389D01*
X9839777Y-9643389D02*
X9830253Y-9662436D01*
X9830253Y-9662436D02*
X9820729Y-9671960D01*
X9820729Y-9671960D02*
X9801682Y-9681484D01*
X9801682Y-9681484D02*
X9782634Y-9681484D01*
X9782634Y-9681484D02*
X9763587Y-9671960D01*
X9763587Y-9671960D02*
X9754063Y-9662436D01*
X9754063Y-9662436D02*
X9744539Y-9643389D01*
X9744539Y-9643389D02*
X9735015Y-9605293D01*
X9735015Y-9605293D02*
X9735015Y-9557674D01*
X9735015Y-9557674D02*
X9744539Y-9519579D01*
X9744539Y-9519579D02*
X9754063Y-9500531D01*
X9754063Y-9500531D02*
X9763587Y-9491008D01*
X9763587Y-9491008D02*
X9782634Y-9481484D01*
X9935015Y-9662436D02*
X9944539Y-9671960D01*
X9944539Y-9671960D02*
X9935015Y-9681484D01*
X9935015Y-9681484D02*
X9925491Y-9671960D01*
X9925491Y-9671960D02*
X9935015Y-9662436D01*
X9935015Y-9662436D02*
X9935015Y-9681484D01*
X10068348Y-9481484D02*
X10087396Y-9481484D01*
X10087396Y-9481484D02*
X10106444Y-9491008D01*
X10106444Y-9491008D02*
X10115968Y-9500531D01*
X10115968Y-9500531D02*
X10125491Y-9519579D01*
X10125491Y-9519579D02*
X10135015Y-9557674D01*
X10135015Y-9557674D02*
X10135015Y-9605293D01*
X10135015Y-9605293D02*
X10125491Y-9643389D01*
X10125491Y-9643389D02*
X10115968Y-9662436D01*
X10115968Y-9662436D02*
X10106444Y-9671960D01*
X10106444Y-9671960D02*
X10087396Y-9681484D01*
X10087396Y-9681484D02*
X10068348Y-9681484D01*
X10068348Y-9681484D02*
X10049301Y-9671960D01*
X10049301Y-9671960D02*
X10039777Y-9662436D01*
X10039777Y-9662436D02*
X10030253Y-9643389D01*
X10030253Y-9643389D02*
X10020729Y-9605293D01*
X10020729Y-9605293D02*
X10020729Y-9557674D01*
X10020729Y-9557674D02*
X10030253Y-9519579D01*
X10030253Y-9519579D02*
X10039777Y-9500531D01*
X10039777Y-9500531D02*
X10049301Y-9491008D01*
X10049301Y-9491008D02*
X10068348Y-9481484D01*
X10258825Y-9481484D02*
X10277872Y-9481484D01*
X10277872Y-9481484D02*
X10296920Y-9491008D01*
X10296920Y-9491008D02*
X10306444Y-9500531D01*
X10306444Y-9500531D02*
X10315968Y-9519579D01*
X10315968Y-9519579D02*
X10325491Y-9557674D01*
X10325491Y-9557674D02*
X10325491Y-9605293D01*
X10325491Y-9605293D02*
X10315968Y-9643389D01*
X10315968Y-9643389D02*
X10306444Y-9662436D01*
X10306444Y-9662436D02*
X10296920Y-9671960D01*
X10296920Y-9671960D02*
X10277872Y-9681484D01*
X10277872Y-9681484D02*
X10258825Y-9681484D01*
X10258825Y-9681484D02*
X10239777Y-9671960D01*
X10239777Y-9671960D02*
X10230253Y-9662436D01*
X10230253Y-9662436D02*
X10220729Y-9643389D01*
X10220729Y-9643389D02*
X10211206Y-9605293D01*
X10211206Y-9605293D02*
X10211206Y-9557674D01*
X10211206Y-9557674D02*
X10220729Y-9519579D01*
X10220729Y-9519579D02*
X10230253Y-9500531D01*
X10230253Y-9500531D02*
X10239777Y-9491008D01*
X10239777Y-9491008D02*
X10258825Y-9481484D01*
X10420729Y-9681484D02*
X10458825Y-9681484D01*
X10458825Y-9681484D02*
X10477872Y-9671960D01*
X10477872Y-9671960D02*
X10487396Y-9662436D01*
X10487396Y-9662436D02*
X10506444Y-9633865D01*
X10506444Y-9633865D02*
X10515968Y-9595770D01*
X10515968Y-9595770D02*
X10515968Y-9519579D01*
X10515968Y-9519579D02*
X10506444Y-9500531D01*
X10506444Y-9500531D02*
X10496920Y-9491008D01*
X10496920Y-9491008D02*
X10477872Y-9481484D01*
X10477872Y-9481484D02*
X10439777Y-9481484D01*
X10439777Y-9481484D02*
X10420729Y-9491008D01*
X10420729Y-9491008D02*
X10411206Y-9500531D01*
X10411206Y-9500531D02*
X10401682Y-9519579D01*
X10401682Y-9519579D02*
X10401682Y-9567198D01*
X10401682Y-9567198D02*
X10411206Y-9586246D01*
X10411206Y-9586246D02*
X10420729Y-9595770D01*
X10420729Y-9595770D02*
X10439777Y-9605293D01*
X10439777Y-9605293D02*
X10477872Y-9605293D01*
X10477872Y-9605293D02*
X10496920Y-9595770D01*
X10496920Y-9595770D02*
X10506444Y-9586246D01*
X10506444Y-9586246D02*
X10515968Y-9567198D01*
X10630253Y-9567198D02*
X10611206Y-9557674D01*
X10611206Y-9557674D02*
X10601682Y-9548150D01*
X10601682Y-9548150D02*
X10592158Y-9529103D01*
X10592158Y-9529103D02*
X10592158Y-9519579D01*
X10592158Y-9519579D02*
X10601682Y-9500531D01*
X10601682Y-9500531D02*
X10611206Y-9491008D01*
X10611206Y-9491008D02*
X10630253Y-9481484D01*
X10630253Y-9481484D02*
X10668349Y-9481484D01*
X10668349Y-9481484D02*
X10687396Y-9491008D01*
X10687396Y-9491008D02*
X10696920Y-9500531D01*
X10696920Y-9500531D02*
X10706444Y-9519579D01*
X10706444Y-9519579D02*
X10706444Y-9529103D01*
X10706444Y-9529103D02*
X10696920Y-9548150D01*
X10696920Y-9548150D02*
X10687396Y-9557674D01*
X10687396Y-9557674D02*
X10668349Y-9567198D01*
X10668349Y-9567198D02*
X10630253Y-9567198D01*
X10630253Y-9567198D02*
X10611206Y-9576722D01*
X10611206Y-9576722D02*
X10601682Y-9586246D01*
X10601682Y-9586246D02*
X10592158Y-9605293D01*
X10592158Y-9605293D02*
X10592158Y-9643389D01*
X10592158Y-9643389D02*
X10601682Y-9662436D01*
X10601682Y-9662436D02*
X10611206Y-9671960D01*
X10611206Y-9671960D02*
X10630253Y-9681484D01*
X10630253Y-9681484D02*
X10668349Y-9681484D01*
X10668349Y-9681484D02*
X10687396Y-9671960D01*
X10687396Y-9671960D02*
X10696920Y-9662436D01*
X10696920Y-9662436D02*
X10706444Y-9643389D01*
X10706444Y-9643389D02*
X10706444Y-9605293D01*
X10706444Y-9605293D02*
X10696920Y-9586246D01*
X10696920Y-9586246D02*
X10687396Y-9576722D01*
X10687396Y-9576722D02*
X10668349Y-9567198D01*
X10782634Y-9481484D02*
X10782634Y-9519579D01*
X10858825Y-9481484D02*
X10858825Y-9519579D01*
X11154063Y-9757674D02*
X11144539Y-9748150D01*
X11144539Y-9748150D02*
X11125491Y-9719579D01*
X11125491Y-9719579D02*
X11115968Y-9700531D01*
X11115968Y-9700531D02*
X11106444Y-9671960D01*
X11106444Y-9671960D02*
X11096920Y-9624341D01*
X11096920Y-9624341D02*
X11096920Y-9586246D01*
X11096920Y-9586246D02*
X11106444Y-9538627D01*
X11106444Y-9538627D02*
X11115968Y-9510055D01*
X11115968Y-9510055D02*
X11125491Y-9491008D01*
X11125491Y-9491008D02*
X11144539Y-9462436D01*
X11144539Y-9462436D02*
X11154063Y-9452912D01*
X11335015Y-9681484D02*
X11220729Y-9681484D01*
X11277872Y-9681484D02*
X11277872Y-9481484D01*
X11277872Y-9481484D02*
X11258825Y-9510055D01*
X11258825Y-9510055D02*
X11239777Y-9529103D01*
X11239777Y-9529103D02*
X11220729Y-9538627D01*
X11449301Y-9567198D02*
X11430253Y-9557674D01*
X11430253Y-9557674D02*
X11420729Y-9548150D01*
X11420729Y-9548150D02*
X11411206Y-9529103D01*
X11411206Y-9529103D02*
X11411206Y-9519579D01*
X11411206Y-9519579D02*
X11420729Y-9500531D01*
X11420729Y-9500531D02*
X11430253Y-9491008D01*
X11430253Y-9491008D02*
X11449301Y-9481484D01*
X11449301Y-9481484D02*
X11487396Y-9481484D01*
X11487396Y-9481484D02*
X11506444Y-9491008D01*
X11506444Y-9491008D02*
X11515968Y-9500531D01*
X11515968Y-9500531D02*
X11525491Y-9519579D01*
X11525491Y-9519579D02*
X11525491Y-9529103D01*
X11525491Y-9529103D02*
X11515968Y-9548150D01*
X11515968Y-9548150D02*
X11506444Y-9557674D01*
X11506444Y-9557674D02*
X11487396Y-9567198D01*
X11487396Y-9567198D02*
X11449301Y-9567198D01*
X11449301Y-9567198D02*
X11430253Y-9576722D01*
X11430253Y-9576722D02*
X11420729Y-9586246D01*
X11420729Y-9586246D02*
X11411206Y-9605293D01*
X11411206Y-9605293D02*
X11411206Y-9643389D01*
X11411206Y-9643389D02*
X11420729Y-9662436D01*
X11420729Y-9662436D02*
X11430253Y-9671960D01*
X11430253Y-9671960D02*
X11449301Y-9681484D01*
X11449301Y-9681484D02*
X11487396Y-9681484D01*
X11487396Y-9681484D02*
X11506444Y-9671960D01*
X11506444Y-9671960D02*
X11515968Y-9662436D01*
X11515968Y-9662436D02*
X11525491Y-9643389D01*
X11525491Y-9643389D02*
X11525491Y-9605293D01*
X11525491Y-9605293D02*
X11515968Y-9586246D01*
X11515968Y-9586246D02*
X11506444Y-9576722D01*
X11506444Y-9576722D02*
X11487396Y-9567198D01*
X11763587Y-9681484D02*
X11763587Y-9481484D01*
X11849301Y-9681484D02*
X11849301Y-9576722D01*
X11849301Y-9576722D02*
X11839777Y-9557674D01*
X11839777Y-9557674D02*
X11820730Y-9548150D01*
X11820730Y-9548150D02*
X11792158Y-9548150D01*
X11792158Y-9548150D02*
X11773110Y-9557674D01*
X11773110Y-9557674D02*
X11763587Y-9567198D01*
X11973110Y-9681484D02*
X11954063Y-9671960D01*
X11954063Y-9671960D02*
X11944539Y-9662436D01*
X11944539Y-9662436D02*
X11935015Y-9643389D01*
X11935015Y-9643389D02*
X11935015Y-9586246D01*
X11935015Y-9586246D02*
X11944539Y-9567198D01*
X11944539Y-9567198D02*
X11954063Y-9557674D01*
X11954063Y-9557674D02*
X11973110Y-9548150D01*
X11973110Y-9548150D02*
X12001682Y-9548150D01*
X12001682Y-9548150D02*
X12020730Y-9557674D01*
X12020730Y-9557674D02*
X12030253Y-9567198D01*
X12030253Y-9567198D02*
X12039777Y-9586246D01*
X12039777Y-9586246D02*
X12039777Y-9643389D01*
X12039777Y-9643389D02*
X12030253Y-9662436D01*
X12030253Y-9662436D02*
X12020730Y-9671960D01*
X12020730Y-9671960D02*
X12001682Y-9681484D01*
X12001682Y-9681484D02*
X11973110Y-9681484D01*
X12154063Y-9681484D02*
X12135015Y-9671960D01*
X12135015Y-9671960D02*
X12125491Y-9652912D01*
X12125491Y-9652912D02*
X12125491Y-9481484D01*
X12306444Y-9671960D02*
X12287396Y-9681484D01*
X12287396Y-9681484D02*
X12249301Y-9681484D01*
X12249301Y-9681484D02*
X12230253Y-9671960D01*
X12230253Y-9671960D02*
X12220730Y-9652912D01*
X12220730Y-9652912D02*
X12220730Y-9576722D01*
X12220730Y-9576722D02*
X12230253Y-9557674D01*
X12230253Y-9557674D02*
X12249301Y-9548150D01*
X12249301Y-9548150D02*
X12287396Y-9548150D01*
X12287396Y-9548150D02*
X12306444Y-9557674D01*
X12306444Y-9557674D02*
X12315968Y-9576722D01*
X12315968Y-9576722D02*
X12315968Y-9595770D01*
X12315968Y-9595770D02*
X12220730Y-9614817D01*
X12392158Y-9671960D02*
X12411206Y-9681484D01*
X12411206Y-9681484D02*
X12449301Y-9681484D01*
X12449301Y-9681484D02*
X12468349Y-9671960D01*
X12468349Y-9671960D02*
X12477872Y-9652912D01*
X12477872Y-9652912D02*
X12477872Y-9643389D01*
X12477872Y-9643389D02*
X12468349Y-9624341D01*
X12468349Y-9624341D02*
X12449301Y-9614817D01*
X12449301Y-9614817D02*
X12420730Y-9614817D01*
X12420730Y-9614817D02*
X12401682Y-9605293D01*
X12401682Y-9605293D02*
X12392158Y-9586246D01*
X12392158Y-9586246D02*
X12392158Y-9576722D01*
X12392158Y-9576722D02*
X12401682Y-9557674D01*
X12401682Y-9557674D02*
X12420730Y-9548150D01*
X12420730Y-9548150D02*
X12449301Y-9548150D01*
X12449301Y-9548150D02*
X12468349Y-9557674D01*
X12544539Y-9757674D02*
X12554063Y-9748150D01*
X12554063Y-9748150D02*
X12573111Y-9719579D01*
X12573111Y-9719579D02*
X12582634Y-9700531D01*
X12582634Y-9700531D02*
X12592158Y-9671960D01*
X12592158Y-9671960D02*
X12601682Y-9624341D01*
X12601682Y-9624341D02*
X12601682Y-9586246D01*
X12601682Y-9586246D02*
X12592158Y-9538627D01*
X12592158Y-9538627D02*
X12582634Y-9510055D01*
X12582634Y-9510055D02*
X12573111Y-9491008D01*
X12573111Y-9491008D02*
X12554063Y-9462436D01*
X12554063Y-9462436D02*
X12544539Y-9452912D01*
D13*
X7579000Y-9854000D02*
G75*
G03*
X7579000Y-9854000I-15000J0D01*
G01*
D11*
X7877872Y-9745484D02*
X7896920Y-9745484D01*
X7896920Y-9745484D02*
X7915967Y-9755008D01*
X7915967Y-9755008D02*
X7925491Y-9764531D01*
X7925491Y-9764531D02*
X7935015Y-9783579D01*
X7935015Y-9783579D02*
X7944539Y-9821674D01*
X7944539Y-9821674D02*
X7944539Y-9869293D01*
X7944539Y-9869293D02*
X7935015Y-9907389D01*
X7935015Y-9907389D02*
X7925491Y-9926436D01*
X7925491Y-9926436D02*
X7915967Y-9935960D01*
X7915967Y-9935960D02*
X7896920Y-9945484D01*
X7896920Y-9945484D02*
X7877872Y-9945484D01*
X7877872Y-9945484D02*
X7858824Y-9935960D01*
X7858824Y-9935960D02*
X7849301Y-9926436D01*
X7849301Y-9926436D02*
X7839777Y-9907389D01*
X7839777Y-9907389D02*
X7830253Y-9869293D01*
X7830253Y-9869293D02*
X7830253Y-9821674D01*
X7830253Y-9821674D02*
X7839777Y-9783579D01*
X7839777Y-9783579D02*
X7849301Y-9764531D01*
X7849301Y-9764531D02*
X7858824Y-9755008D01*
X7858824Y-9755008D02*
X7877872Y-9745484D01*
X8030253Y-9926436D02*
X8039777Y-9935960D01*
X8039777Y-9935960D02*
X8030253Y-9945484D01*
X8030253Y-9945484D02*
X8020729Y-9935960D01*
X8020729Y-9935960D02*
X8030253Y-9926436D01*
X8030253Y-9926436D02*
X8030253Y-9945484D01*
X8106443Y-9745484D02*
X8230253Y-9745484D01*
X8230253Y-9745484D02*
X8163586Y-9821674D01*
X8163586Y-9821674D02*
X8192158Y-9821674D01*
X8192158Y-9821674D02*
X8211205Y-9831198D01*
X8211205Y-9831198D02*
X8220729Y-9840722D01*
X8220729Y-9840722D02*
X8230253Y-9859770D01*
X8230253Y-9859770D02*
X8230253Y-9907389D01*
X8230253Y-9907389D02*
X8220729Y-9926436D01*
X8220729Y-9926436D02*
X8211205Y-9935960D01*
X8211205Y-9935960D02*
X8192158Y-9945484D01*
X8192158Y-9945484D02*
X8135015Y-9945484D01*
X8135015Y-9945484D02*
X8115967Y-9935960D01*
X8115967Y-9935960D02*
X8106443Y-9926436D01*
X8354062Y-9745484D02*
X8373110Y-9745484D01*
X8373110Y-9745484D02*
X8392158Y-9755008D01*
X8392158Y-9755008D02*
X8401682Y-9764531D01*
X8401682Y-9764531D02*
X8411205Y-9783579D01*
X8411205Y-9783579D02*
X8420729Y-9821674D01*
X8420729Y-9821674D02*
X8420729Y-9869293D01*
X8420729Y-9869293D02*
X8411205Y-9907389D01*
X8411205Y-9907389D02*
X8401682Y-9926436D01*
X8401682Y-9926436D02*
X8392158Y-9935960D01*
X8392158Y-9935960D02*
X8373110Y-9945484D01*
X8373110Y-9945484D02*
X8354062Y-9945484D01*
X8354062Y-9945484D02*
X8335015Y-9935960D01*
X8335015Y-9935960D02*
X8325491Y-9926436D01*
X8325491Y-9926436D02*
X8315967Y-9907389D01*
X8315967Y-9907389D02*
X8306443Y-9869293D01*
X8306443Y-9869293D02*
X8306443Y-9821674D01*
X8306443Y-9821674D02*
X8315967Y-9783579D01*
X8315967Y-9783579D02*
X8325491Y-9764531D01*
X8325491Y-9764531D02*
X8335015Y-9755008D01*
X8335015Y-9755008D02*
X8354062Y-9745484D01*
X8544539Y-9745484D02*
X8563586Y-9745484D01*
X8563586Y-9745484D02*
X8582634Y-9755008D01*
X8582634Y-9755008D02*
X8592158Y-9764531D01*
X8592158Y-9764531D02*
X8601682Y-9783579D01*
X8601682Y-9783579D02*
X8611205Y-9821674D01*
X8611205Y-9821674D02*
X8611205Y-9869293D01*
X8611205Y-9869293D02*
X8601682Y-9907389D01*
X8601682Y-9907389D02*
X8592158Y-9926436D01*
X8592158Y-9926436D02*
X8582634Y-9935960D01*
X8582634Y-9935960D02*
X8563586Y-9945484D01*
X8563586Y-9945484D02*
X8544539Y-9945484D01*
X8544539Y-9945484D02*
X8525491Y-9935960D01*
X8525491Y-9935960D02*
X8515967Y-9926436D01*
X8515967Y-9926436D02*
X8506444Y-9907389D01*
X8506444Y-9907389D02*
X8496920Y-9869293D01*
X8496920Y-9869293D02*
X8496920Y-9821674D01*
X8496920Y-9821674D02*
X8506444Y-9783579D01*
X8506444Y-9783579D02*
X8515967Y-9764531D01*
X8515967Y-9764531D02*
X8525491Y-9755008D01*
X8525491Y-9755008D02*
X8544539Y-9745484D01*
X8696920Y-9945484D02*
X8696920Y-9812150D01*
X8696920Y-9831198D02*
X8706444Y-9821674D01*
X8706444Y-9821674D02*
X8725491Y-9812150D01*
X8725491Y-9812150D02*
X8754063Y-9812150D01*
X8754063Y-9812150D02*
X8773110Y-9821674D01*
X8773110Y-9821674D02*
X8782634Y-9840722D01*
X8782634Y-9840722D02*
X8782634Y-9945484D01*
X8782634Y-9840722D02*
X8792158Y-9821674D01*
X8792158Y-9821674D02*
X8811205Y-9812150D01*
X8811205Y-9812150D02*
X8839777Y-9812150D01*
X8839777Y-9812150D02*
X8858825Y-9821674D01*
X8858825Y-9821674D02*
X8868348Y-9840722D01*
X8868348Y-9840722D02*
X8868348Y-9945484D01*
X8963586Y-9945484D02*
X8963586Y-9812150D01*
X8963586Y-9831198D02*
X8973110Y-9821674D01*
X8973110Y-9821674D02*
X8992158Y-9812150D01*
X8992158Y-9812150D02*
X9020729Y-9812150D01*
X9020729Y-9812150D02*
X9039777Y-9821674D01*
X9039777Y-9821674D02*
X9049301Y-9840722D01*
X9049301Y-9840722D02*
X9049301Y-9945484D01*
X9049301Y-9840722D02*
X9058825Y-9821674D01*
X9058825Y-9821674D02*
X9077872Y-9812150D01*
X9077872Y-9812150D02*
X9106444Y-9812150D01*
X9106444Y-9812150D02*
X9125491Y-9821674D01*
X9125491Y-9821674D02*
X9135015Y-9840722D01*
X9135015Y-9840722D02*
X9135015Y-9945484D01*
X9525491Y-9735960D02*
X9354063Y-9993103D01*
X9782634Y-9745484D02*
X9801682Y-9745484D01*
X9801682Y-9745484D02*
X9820729Y-9755008D01*
X9820729Y-9755008D02*
X9830253Y-9764531D01*
X9830253Y-9764531D02*
X9839777Y-9783579D01*
X9839777Y-9783579D02*
X9849301Y-9821674D01*
X9849301Y-9821674D02*
X9849301Y-9869293D01*
X9849301Y-9869293D02*
X9839777Y-9907389D01*
X9839777Y-9907389D02*
X9830253Y-9926436D01*
X9830253Y-9926436D02*
X9820729Y-9935960D01*
X9820729Y-9935960D02*
X9801682Y-9945484D01*
X9801682Y-9945484D02*
X9782634Y-9945484D01*
X9782634Y-9945484D02*
X9763587Y-9935960D01*
X9763587Y-9935960D02*
X9754063Y-9926436D01*
X9754063Y-9926436D02*
X9744539Y-9907389D01*
X9744539Y-9907389D02*
X9735015Y-9869293D01*
X9735015Y-9869293D02*
X9735015Y-9821674D01*
X9735015Y-9821674D02*
X9744539Y-9783579D01*
X9744539Y-9783579D02*
X9754063Y-9764531D01*
X9754063Y-9764531D02*
X9763587Y-9755008D01*
X9763587Y-9755008D02*
X9782634Y-9745484D01*
X9935015Y-9926436D02*
X9944539Y-9935960D01*
X9944539Y-9935960D02*
X9935015Y-9945484D01*
X9935015Y-9945484D02*
X9925491Y-9935960D01*
X9925491Y-9935960D02*
X9935015Y-9926436D01*
X9935015Y-9926436D02*
X9935015Y-9945484D01*
X10068348Y-9745484D02*
X10087396Y-9745484D01*
X10087396Y-9745484D02*
X10106444Y-9755008D01*
X10106444Y-9755008D02*
X10115968Y-9764531D01*
X10115968Y-9764531D02*
X10125491Y-9783579D01*
X10125491Y-9783579D02*
X10135015Y-9821674D01*
X10135015Y-9821674D02*
X10135015Y-9869293D01*
X10135015Y-9869293D02*
X10125491Y-9907389D01*
X10125491Y-9907389D02*
X10115968Y-9926436D01*
X10115968Y-9926436D02*
X10106444Y-9935960D01*
X10106444Y-9935960D02*
X10087396Y-9945484D01*
X10087396Y-9945484D02*
X10068348Y-9945484D01*
X10068348Y-9945484D02*
X10049301Y-9935960D01*
X10049301Y-9935960D02*
X10039777Y-9926436D01*
X10039777Y-9926436D02*
X10030253Y-9907389D01*
X10030253Y-9907389D02*
X10020729Y-9869293D01*
X10020729Y-9869293D02*
X10020729Y-9821674D01*
X10020729Y-9821674D02*
X10030253Y-9783579D01*
X10030253Y-9783579D02*
X10039777Y-9764531D01*
X10039777Y-9764531D02*
X10049301Y-9755008D01*
X10049301Y-9755008D02*
X10068348Y-9745484D01*
X10325491Y-9945484D02*
X10211206Y-9945484D01*
X10268348Y-9945484D02*
X10268348Y-9745484D01*
X10268348Y-9745484D02*
X10249301Y-9774055D01*
X10249301Y-9774055D02*
X10230253Y-9793103D01*
X10230253Y-9793103D02*
X10211206Y-9802627D01*
X10515968Y-9945484D02*
X10401682Y-9945484D01*
X10458825Y-9945484D02*
X10458825Y-9745484D01*
X10458825Y-9745484D02*
X10439777Y-9774055D01*
X10439777Y-9774055D02*
X10420729Y-9793103D01*
X10420729Y-9793103D02*
X10401682Y-9802627D01*
X10630253Y-9831198D02*
X10611206Y-9821674D01*
X10611206Y-9821674D02*
X10601682Y-9812150D01*
X10601682Y-9812150D02*
X10592158Y-9793103D01*
X10592158Y-9793103D02*
X10592158Y-9783579D01*
X10592158Y-9783579D02*
X10601682Y-9764531D01*
X10601682Y-9764531D02*
X10611206Y-9755008D01*
X10611206Y-9755008D02*
X10630253Y-9745484D01*
X10630253Y-9745484D02*
X10668349Y-9745484D01*
X10668349Y-9745484D02*
X10687396Y-9755008D01*
X10687396Y-9755008D02*
X10696920Y-9764531D01*
X10696920Y-9764531D02*
X10706444Y-9783579D01*
X10706444Y-9783579D02*
X10706444Y-9793103D01*
X10706444Y-9793103D02*
X10696920Y-9812150D01*
X10696920Y-9812150D02*
X10687396Y-9821674D01*
X10687396Y-9821674D02*
X10668349Y-9831198D01*
X10668349Y-9831198D02*
X10630253Y-9831198D01*
X10630253Y-9831198D02*
X10611206Y-9840722D01*
X10611206Y-9840722D02*
X10601682Y-9850246D01*
X10601682Y-9850246D02*
X10592158Y-9869293D01*
X10592158Y-9869293D02*
X10592158Y-9907389D01*
X10592158Y-9907389D02*
X10601682Y-9926436D01*
X10601682Y-9926436D02*
X10611206Y-9935960D01*
X10611206Y-9935960D02*
X10630253Y-9945484D01*
X10630253Y-9945484D02*
X10668349Y-9945484D01*
X10668349Y-9945484D02*
X10687396Y-9935960D01*
X10687396Y-9935960D02*
X10696920Y-9926436D01*
X10696920Y-9926436D02*
X10706444Y-9907389D01*
X10706444Y-9907389D02*
X10706444Y-9869293D01*
X10706444Y-9869293D02*
X10696920Y-9850246D01*
X10696920Y-9850246D02*
X10687396Y-9840722D01*
X10687396Y-9840722D02*
X10668349Y-9831198D01*
X10782634Y-9745484D02*
X10782634Y-9783579D01*
X10858825Y-9745484D02*
X10858825Y-9783579D01*
X11154063Y-10021674D02*
X11144539Y-10012150D01*
X11144539Y-10012150D02*
X11125491Y-9983579D01*
X11125491Y-9983579D02*
X11115968Y-9964531D01*
X11115968Y-9964531D02*
X11106444Y-9935960D01*
X11106444Y-9935960D02*
X11096920Y-9888341D01*
X11096920Y-9888341D02*
X11096920Y-9850246D01*
X11096920Y-9850246D02*
X11106444Y-9802627D01*
X11106444Y-9802627D02*
X11115968Y-9774055D01*
X11115968Y-9774055D02*
X11125491Y-9755008D01*
X11125491Y-9755008D02*
X11144539Y-9726436D01*
X11144539Y-9726436D02*
X11154063Y-9716912D01*
X11315968Y-9745484D02*
X11277872Y-9745484D01*
X11277872Y-9745484D02*
X11258825Y-9755008D01*
X11258825Y-9755008D02*
X11249301Y-9764531D01*
X11249301Y-9764531D02*
X11230253Y-9793103D01*
X11230253Y-9793103D02*
X11220729Y-9831198D01*
X11220729Y-9831198D02*
X11220729Y-9907389D01*
X11220729Y-9907389D02*
X11230253Y-9926436D01*
X11230253Y-9926436D02*
X11239777Y-9935960D01*
X11239777Y-9935960D02*
X11258825Y-9945484D01*
X11258825Y-9945484D02*
X11296920Y-9945484D01*
X11296920Y-9945484D02*
X11315968Y-9935960D01*
X11315968Y-9935960D02*
X11325491Y-9926436D01*
X11325491Y-9926436D02*
X11335015Y-9907389D01*
X11335015Y-9907389D02*
X11335015Y-9859770D01*
X11335015Y-9859770D02*
X11325491Y-9840722D01*
X11325491Y-9840722D02*
X11315968Y-9831198D01*
X11315968Y-9831198D02*
X11296920Y-9821674D01*
X11296920Y-9821674D02*
X11258825Y-9821674D01*
X11258825Y-9821674D02*
X11239777Y-9831198D01*
X11239777Y-9831198D02*
X11230253Y-9840722D01*
X11230253Y-9840722D02*
X11220729Y-9859770D01*
X11573110Y-9945484D02*
X11573110Y-9745484D01*
X11658825Y-9945484D02*
X11658825Y-9840722D01*
X11658825Y-9840722D02*
X11649301Y-9821674D01*
X11649301Y-9821674D02*
X11630253Y-9812150D01*
X11630253Y-9812150D02*
X11601682Y-9812150D01*
X11601682Y-9812150D02*
X11582634Y-9821674D01*
X11582634Y-9821674D02*
X11573110Y-9831198D01*
X11782634Y-9945484D02*
X11763587Y-9935960D01*
X11763587Y-9935960D02*
X11754063Y-9926436D01*
X11754063Y-9926436D02*
X11744539Y-9907389D01*
X11744539Y-9907389D02*
X11744539Y-9850246D01*
X11744539Y-9850246D02*
X11754063Y-9831198D01*
X11754063Y-9831198D02*
X11763587Y-9821674D01*
X11763587Y-9821674D02*
X11782634Y-9812150D01*
X11782634Y-9812150D02*
X11811206Y-9812150D01*
X11811206Y-9812150D02*
X11830253Y-9821674D01*
X11830253Y-9821674D02*
X11839777Y-9831198D01*
X11839777Y-9831198D02*
X11849301Y-9850246D01*
X11849301Y-9850246D02*
X11849301Y-9907389D01*
X11849301Y-9907389D02*
X11839777Y-9926436D01*
X11839777Y-9926436D02*
X11830253Y-9935960D01*
X11830253Y-9935960D02*
X11811206Y-9945484D01*
X11811206Y-9945484D02*
X11782634Y-9945484D01*
X11963587Y-9945484D02*
X11944539Y-9935960D01*
X11944539Y-9935960D02*
X11935015Y-9916912D01*
X11935015Y-9916912D02*
X11935015Y-9745484D01*
X12115968Y-9935960D02*
X12096920Y-9945484D01*
X12096920Y-9945484D02*
X12058825Y-9945484D01*
X12058825Y-9945484D02*
X12039777Y-9935960D01*
X12039777Y-9935960D02*
X12030253Y-9916912D01*
X12030253Y-9916912D02*
X12030253Y-9840722D01*
X12030253Y-9840722D02*
X12039777Y-9821674D01*
X12039777Y-9821674D02*
X12058825Y-9812150D01*
X12058825Y-9812150D02*
X12096920Y-9812150D01*
X12096920Y-9812150D02*
X12115968Y-9821674D01*
X12115968Y-9821674D02*
X12125491Y-9840722D01*
X12125491Y-9840722D02*
X12125491Y-9859770D01*
X12125491Y-9859770D02*
X12030253Y-9878817D01*
X12201682Y-9935960D02*
X12220730Y-9945484D01*
X12220730Y-9945484D02*
X12258825Y-9945484D01*
X12258825Y-9945484D02*
X12277872Y-9935960D01*
X12277872Y-9935960D02*
X12287396Y-9916912D01*
X12287396Y-9916912D02*
X12287396Y-9907389D01*
X12287396Y-9907389D02*
X12277872Y-9888341D01*
X12277872Y-9888341D02*
X12258825Y-9878817D01*
X12258825Y-9878817D02*
X12230253Y-9878817D01*
X12230253Y-9878817D02*
X12211206Y-9869293D01*
X12211206Y-9869293D02*
X12201682Y-9850246D01*
X12201682Y-9850246D02*
X12201682Y-9840722D01*
X12201682Y-9840722D02*
X12211206Y-9821674D01*
X12211206Y-9821674D02*
X12230253Y-9812150D01*
X12230253Y-9812150D02*
X12258825Y-9812150D01*
X12258825Y-9812150D02*
X12277872Y-9821674D01*
X12354063Y-10021674D02*
X12363587Y-10012150D01*
X12363587Y-10012150D02*
X12382634Y-9983579D01*
X12382634Y-9983579D02*
X12392158Y-9964531D01*
X12392158Y-9964531D02*
X12401682Y-9935960D01*
X12401682Y-9935960D02*
X12411206Y-9888341D01*
X12411206Y-9888341D02*
X12411206Y-9850246D01*
X12411206Y-9850246D02*
X12401682Y-9802627D01*
X12401682Y-9802627D02*
X12392158Y-9774055D01*
X12392158Y-9774055D02*
X12382634Y-9755008D01*
X12382634Y-9755008D02*
X12363587Y-9726436D01*
X12363587Y-9726436D02*
X12354063Y-9716912D01*
D14*
X7559000Y-10098000D02*
X7559000Y-10138000D01*
X7539000Y-10118000D02*
X7579000Y-10118000D01*
D11*
X7877872Y-10009484D02*
X7896920Y-10009484D01*
X7896920Y-10009484D02*
X7915967Y-10019008D01*
X7915967Y-10019008D02*
X7925491Y-10028531D01*
X7925491Y-10028531D02*
X7935015Y-10047579D01*
X7935015Y-10047579D02*
X7944539Y-10085674D01*
X7944539Y-10085674D02*
X7944539Y-10133293D01*
X7944539Y-10133293D02*
X7935015Y-10171389D01*
X7935015Y-10171389D02*
X7925491Y-10190436D01*
X7925491Y-10190436D02*
X7915967Y-10199960D01*
X7915967Y-10199960D02*
X7896920Y-10209484D01*
X7896920Y-10209484D02*
X7877872Y-10209484D01*
X7877872Y-10209484D02*
X7858824Y-10199960D01*
X7858824Y-10199960D02*
X7849301Y-10190436D01*
X7849301Y-10190436D02*
X7839777Y-10171389D01*
X7839777Y-10171389D02*
X7830253Y-10133293D01*
X7830253Y-10133293D02*
X7830253Y-10085674D01*
X7830253Y-10085674D02*
X7839777Y-10047579D01*
X7839777Y-10047579D02*
X7849301Y-10028531D01*
X7849301Y-10028531D02*
X7858824Y-10019008D01*
X7858824Y-10019008D02*
X7877872Y-10009484D01*
X8030253Y-10190436D02*
X8039777Y-10199960D01*
X8039777Y-10199960D02*
X8030253Y-10209484D01*
X8030253Y-10209484D02*
X8020729Y-10199960D01*
X8020729Y-10199960D02*
X8030253Y-10190436D01*
X8030253Y-10190436D02*
X8030253Y-10209484D01*
X8211205Y-10076150D02*
X8211205Y-10209484D01*
X8163586Y-9999960D02*
X8115967Y-10142817D01*
X8115967Y-10142817D02*
X8239777Y-10142817D01*
X8354062Y-10009484D02*
X8373110Y-10009484D01*
X8373110Y-10009484D02*
X8392158Y-10019008D01*
X8392158Y-10019008D02*
X8401682Y-10028531D01*
X8401682Y-10028531D02*
X8411205Y-10047579D01*
X8411205Y-10047579D02*
X8420729Y-10085674D01*
X8420729Y-10085674D02*
X8420729Y-10133293D01*
X8420729Y-10133293D02*
X8411205Y-10171389D01*
X8411205Y-10171389D02*
X8401682Y-10190436D01*
X8401682Y-10190436D02*
X8392158Y-10199960D01*
X8392158Y-10199960D02*
X8373110Y-10209484D01*
X8373110Y-10209484D02*
X8354062Y-10209484D01*
X8354062Y-10209484D02*
X8335015Y-10199960D01*
X8335015Y-10199960D02*
X8325491Y-10190436D01*
X8325491Y-10190436D02*
X8315967Y-10171389D01*
X8315967Y-10171389D02*
X8306443Y-10133293D01*
X8306443Y-10133293D02*
X8306443Y-10085674D01*
X8306443Y-10085674D02*
X8315967Y-10047579D01*
X8315967Y-10047579D02*
X8325491Y-10028531D01*
X8325491Y-10028531D02*
X8335015Y-10019008D01*
X8335015Y-10019008D02*
X8354062Y-10009484D01*
X8544539Y-10009484D02*
X8563586Y-10009484D01*
X8563586Y-10009484D02*
X8582634Y-10019008D01*
X8582634Y-10019008D02*
X8592158Y-10028531D01*
X8592158Y-10028531D02*
X8601682Y-10047579D01*
X8601682Y-10047579D02*
X8611205Y-10085674D01*
X8611205Y-10085674D02*
X8611205Y-10133293D01*
X8611205Y-10133293D02*
X8601682Y-10171389D01*
X8601682Y-10171389D02*
X8592158Y-10190436D01*
X8592158Y-10190436D02*
X8582634Y-10199960D01*
X8582634Y-10199960D02*
X8563586Y-10209484D01*
X8563586Y-10209484D02*
X8544539Y-10209484D01*
X8544539Y-10209484D02*
X8525491Y-10199960D01*
X8525491Y-10199960D02*
X8515967Y-10190436D01*
X8515967Y-10190436D02*
X8506444Y-10171389D01*
X8506444Y-10171389D02*
X8496920Y-10133293D01*
X8496920Y-10133293D02*
X8496920Y-10085674D01*
X8496920Y-10085674D02*
X8506444Y-10047579D01*
X8506444Y-10047579D02*
X8515967Y-10028531D01*
X8515967Y-10028531D02*
X8525491Y-10019008D01*
X8525491Y-10019008D02*
X8544539Y-10009484D01*
X8696920Y-10209484D02*
X8696920Y-10076150D01*
X8696920Y-10095198D02*
X8706444Y-10085674D01*
X8706444Y-10085674D02*
X8725491Y-10076150D01*
X8725491Y-10076150D02*
X8754063Y-10076150D01*
X8754063Y-10076150D02*
X8773110Y-10085674D01*
X8773110Y-10085674D02*
X8782634Y-10104722D01*
X8782634Y-10104722D02*
X8782634Y-10209484D01*
X8782634Y-10104722D02*
X8792158Y-10085674D01*
X8792158Y-10085674D02*
X8811205Y-10076150D01*
X8811205Y-10076150D02*
X8839777Y-10076150D01*
X8839777Y-10076150D02*
X8858825Y-10085674D01*
X8858825Y-10085674D02*
X8868348Y-10104722D01*
X8868348Y-10104722D02*
X8868348Y-10209484D01*
X8963586Y-10209484D02*
X8963586Y-10076150D01*
X8963586Y-10095198D02*
X8973110Y-10085674D01*
X8973110Y-10085674D02*
X8992158Y-10076150D01*
X8992158Y-10076150D02*
X9020729Y-10076150D01*
X9020729Y-10076150D02*
X9039777Y-10085674D01*
X9039777Y-10085674D02*
X9049301Y-10104722D01*
X9049301Y-10104722D02*
X9049301Y-10209484D01*
X9049301Y-10104722D02*
X9058825Y-10085674D01*
X9058825Y-10085674D02*
X9077872Y-10076150D01*
X9077872Y-10076150D02*
X9106444Y-10076150D01*
X9106444Y-10076150D02*
X9125491Y-10085674D01*
X9125491Y-10085674D02*
X9135015Y-10104722D01*
X9135015Y-10104722D02*
X9135015Y-10209484D01*
X9525491Y-9999960D02*
X9354063Y-10257103D01*
X9782634Y-10009484D02*
X9801682Y-10009484D01*
X9801682Y-10009484D02*
X9820729Y-10019008D01*
X9820729Y-10019008D02*
X9830253Y-10028531D01*
X9830253Y-10028531D02*
X9839777Y-10047579D01*
X9839777Y-10047579D02*
X9849301Y-10085674D01*
X9849301Y-10085674D02*
X9849301Y-10133293D01*
X9849301Y-10133293D02*
X9839777Y-10171389D01*
X9839777Y-10171389D02*
X9830253Y-10190436D01*
X9830253Y-10190436D02*
X9820729Y-10199960D01*
X9820729Y-10199960D02*
X9801682Y-10209484D01*
X9801682Y-10209484D02*
X9782634Y-10209484D01*
X9782634Y-10209484D02*
X9763587Y-10199960D01*
X9763587Y-10199960D02*
X9754063Y-10190436D01*
X9754063Y-10190436D02*
X9744539Y-10171389D01*
X9744539Y-10171389D02*
X9735015Y-10133293D01*
X9735015Y-10133293D02*
X9735015Y-10085674D01*
X9735015Y-10085674D02*
X9744539Y-10047579D01*
X9744539Y-10047579D02*
X9754063Y-10028531D01*
X9754063Y-10028531D02*
X9763587Y-10019008D01*
X9763587Y-10019008D02*
X9782634Y-10009484D01*
X9935015Y-10190436D02*
X9944539Y-10199960D01*
X9944539Y-10199960D02*
X9935015Y-10209484D01*
X9935015Y-10209484D02*
X9925491Y-10199960D01*
X9925491Y-10199960D02*
X9935015Y-10190436D01*
X9935015Y-10190436D02*
X9935015Y-10209484D01*
X10068348Y-10009484D02*
X10087396Y-10009484D01*
X10087396Y-10009484D02*
X10106444Y-10019008D01*
X10106444Y-10019008D02*
X10115968Y-10028531D01*
X10115968Y-10028531D02*
X10125491Y-10047579D01*
X10125491Y-10047579D02*
X10135015Y-10085674D01*
X10135015Y-10085674D02*
X10135015Y-10133293D01*
X10135015Y-10133293D02*
X10125491Y-10171389D01*
X10125491Y-10171389D02*
X10115968Y-10190436D01*
X10115968Y-10190436D02*
X10106444Y-10199960D01*
X10106444Y-10199960D02*
X10087396Y-10209484D01*
X10087396Y-10209484D02*
X10068348Y-10209484D01*
X10068348Y-10209484D02*
X10049301Y-10199960D01*
X10049301Y-10199960D02*
X10039777Y-10190436D01*
X10039777Y-10190436D02*
X10030253Y-10171389D01*
X10030253Y-10171389D02*
X10020729Y-10133293D01*
X10020729Y-10133293D02*
X10020729Y-10085674D01*
X10020729Y-10085674D02*
X10030253Y-10047579D01*
X10030253Y-10047579D02*
X10039777Y-10028531D01*
X10039777Y-10028531D02*
X10049301Y-10019008D01*
X10049301Y-10019008D02*
X10068348Y-10009484D01*
X10325491Y-10209484D02*
X10211206Y-10209484D01*
X10268348Y-10209484D02*
X10268348Y-10009484D01*
X10268348Y-10009484D02*
X10249301Y-10038055D01*
X10249301Y-10038055D02*
X10230253Y-10057103D01*
X10230253Y-10057103D02*
X10211206Y-10066627D01*
X10506444Y-10009484D02*
X10411206Y-10009484D01*
X10411206Y-10009484D02*
X10401682Y-10104722D01*
X10401682Y-10104722D02*
X10411206Y-10095198D01*
X10411206Y-10095198D02*
X10430253Y-10085674D01*
X10430253Y-10085674D02*
X10477872Y-10085674D01*
X10477872Y-10085674D02*
X10496920Y-10095198D01*
X10496920Y-10095198D02*
X10506444Y-10104722D01*
X10506444Y-10104722D02*
X10515968Y-10123770D01*
X10515968Y-10123770D02*
X10515968Y-10171389D01*
X10515968Y-10171389D02*
X10506444Y-10190436D01*
X10506444Y-10190436D02*
X10496920Y-10199960D01*
X10496920Y-10199960D02*
X10477872Y-10209484D01*
X10477872Y-10209484D02*
X10430253Y-10209484D01*
X10430253Y-10209484D02*
X10411206Y-10199960D01*
X10411206Y-10199960D02*
X10401682Y-10190436D01*
X10582634Y-10009484D02*
X10715968Y-10009484D01*
X10715968Y-10009484D02*
X10630253Y-10209484D01*
X10782634Y-10009484D02*
X10782634Y-10047579D01*
X10858825Y-10009484D02*
X10858825Y-10047579D01*
X11154063Y-10285674D02*
X11144539Y-10276150D01*
X11144539Y-10276150D02*
X11125491Y-10247579D01*
X11125491Y-10247579D02*
X11115968Y-10228531D01*
X11115968Y-10228531D02*
X11106444Y-10199960D01*
X11106444Y-10199960D02*
X11096920Y-10152341D01*
X11096920Y-10152341D02*
X11096920Y-10114246D01*
X11096920Y-10114246D02*
X11106444Y-10066627D01*
X11106444Y-10066627D02*
X11115968Y-10038055D01*
X11115968Y-10038055D02*
X11125491Y-10019008D01*
X11125491Y-10019008D02*
X11144539Y-9990436D01*
X11144539Y-9990436D02*
X11154063Y-9980912D01*
X11211206Y-10009484D02*
X11335015Y-10009484D01*
X11335015Y-10009484D02*
X11268348Y-10085674D01*
X11268348Y-10085674D02*
X11296920Y-10085674D01*
X11296920Y-10085674D02*
X11315968Y-10095198D01*
X11315968Y-10095198D02*
X11325491Y-10104722D01*
X11325491Y-10104722D02*
X11335015Y-10123770D01*
X11335015Y-10123770D02*
X11335015Y-10171389D01*
X11335015Y-10171389D02*
X11325491Y-10190436D01*
X11325491Y-10190436D02*
X11315968Y-10199960D01*
X11315968Y-10199960D02*
X11296920Y-10209484D01*
X11296920Y-10209484D02*
X11239777Y-10209484D01*
X11239777Y-10209484D02*
X11220729Y-10199960D01*
X11220729Y-10199960D02*
X11211206Y-10190436D01*
X11573110Y-10209484D02*
X11573110Y-10009484D01*
X11658825Y-10209484D02*
X11658825Y-10104722D01*
X11658825Y-10104722D02*
X11649301Y-10085674D01*
X11649301Y-10085674D02*
X11630253Y-10076150D01*
X11630253Y-10076150D02*
X11601682Y-10076150D01*
X11601682Y-10076150D02*
X11582634Y-10085674D01*
X11582634Y-10085674D02*
X11573110Y-10095198D01*
X11782634Y-10209484D02*
X11763587Y-10199960D01*
X11763587Y-10199960D02*
X11754063Y-10190436D01*
X11754063Y-10190436D02*
X11744539Y-10171389D01*
X11744539Y-10171389D02*
X11744539Y-10114246D01*
X11744539Y-10114246D02*
X11754063Y-10095198D01*
X11754063Y-10095198D02*
X11763587Y-10085674D01*
X11763587Y-10085674D02*
X11782634Y-10076150D01*
X11782634Y-10076150D02*
X11811206Y-10076150D01*
X11811206Y-10076150D02*
X11830253Y-10085674D01*
X11830253Y-10085674D02*
X11839777Y-10095198D01*
X11839777Y-10095198D02*
X11849301Y-10114246D01*
X11849301Y-10114246D02*
X11849301Y-10171389D01*
X11849301Y-10171389D02*
X11839777Y-10190436D01*
X11839777Y-10190436D02*
X11830253Y-10199960D01*
X11830253Y-10199960D02*
X11811206Y-10209484D01*
X11811206Y-10209484D02*
X11782634Y-10209484D01*
X11963587Y-10209484D02*
X11944539Y-10199960D01*
X11944539Y-10199960D02*
X11935015Y-10180912D01*
X11935015Y-10180912D02*
X11935015Y-10009484D01*
X12115968Y-10199960D02*
X12096920Y-10209484D01*
X12096920Y-10209484D02*
X12058825Y-10209484D01*
X12058825Y-10209484D02*
X12039777Y-10199960D01*
X12039777Y-10199960D02*
X12030253Y-10180912D01*
X12030253Y-10180912D02*
X12030253Y-10104722D01*
X12030253Y-10104722D02*
X12039777Y-10085674D01*
X12039777Y-10085674D02*
X12058825Y-10076150D01*
X12058825Y-10076150D02*
X12096920Y-10076150D01*
X12096920Y-10076150D02*
X12115968Y-10085674D01*
X12115968Y-10085674D02*
X12125491Y-10104722D01*
X12125491Y-10104722D02*
X12125491Y-10123770D01*
X12125491Y-10123770D02*
X12030253Y-10142817D01*
X12201682Y-10199960D02*
X12220730Y-10209484D01*
X12220730Y-10209484D02*
X12258825Y-10209484D01*
X12258825Y-10209484D02*
X12277872Y-10199960D01*
X12277872Y-10199960D02*
X12287396Y-10180912D01*
X12287396Y-10180912D02*
X12287396Y-10171389D01*
X12287396Y-10171389D02*
X12277872Y-10152341D01*
X12277872Y-10152341D02*
X12258825Y-10142817D01*
X12258825Y-10142817D02*
X12230253Y-10142817D01*
X12230253Y-10142817D02*
X12211206Y-10133293D01*
X12211206Y-10133293D02*
X12201682Y-10114246D01*
X12201682Y-10114246D02*
X12201682Y-10104722D01*
X12201682Y-10104722D02*
X12211206Y-10085674D01*
X12211206Y-10085674D02*
X12230253Y-10076150D01*
X12230253Y-10076150D02*
X12258825Y-10076150D01*
X12258825Y-10076150D02*
X12277872Y-10085674D01*
X12354063Y-10285674D02*
X12363587Y-10276150D01*
X12363587Y-10276150D02*
X12382634Y-10247579D01*
X12382634Y-10247579D02*
X12392158Y-10228531D01*
X12392158Y-10228531D02*
X12401682Y-10199960D01*
X12401682Y-10199960D02*
X12411206Y-10152341D01*
X12411206Y-10152341D02*
X12411206Y-10114246D01*
X12411206Y-10114246D02*
X12401682Y-10066627D01*
X12401682Y-10066627D02*
X12392158Y-10038055D01*
X12392158Y-10038055D02*
X12382634Y-10019008D01*
X12382634Y-10019008D02*
X12363587Y-9990436D01*
X12363587Y-9990436D02*
X12354063Y-9980912D01*
D15*
X7570213Y-10403213D02*
X7570213Y-10360787D01*
X7527787Y-10360787D01*
X7527787Y-10403213D01*
X7570213Y-10403213D01*
D11*
X7877872Y-10273484D02*
X7896920Y-10273484D01*
X7896920Y-10273484D02*
X7915967Y-10283008D01*
X7915967Y-10283008D02*
X7925491Y-10292531D01*
X7925491Y-10292531D02*
X7935015Y-10311579D01*
X7935015Y-10311579D02*
X7944539Y-10349674D01*
X7944539Y-10349674D02*
X7944539Y-10397293D01*
X7944539Y-10397293D02*
X7935015Y-10435389D01*
X7935015Y-10435389D02*
X7925491Y-10454436D01*
X7925491Y-10454436D02*
X7915967Y-10463960D01*
X7915967Y-10463960D02*
X7896920Y-10473484D01*
X7896920Y-10473484D02*
X7877872Y-10473484D01*
X7877872Y-10473484D02*
X7858824Y-10463960D01*
X7858824Y-10463960D02*
X7849301Y-10454436D01*
X7849301Y-10454436D02*
X7839777Y-10435389D01*
X7839777Y-10435389D02*
X7830253Y-10397293D01*
X7830253Y-10397293D02*
X7830253Y-10349674D01*
X7830253Y-10349674D02*
X7839777Y-10311579D01*
X7839777Y-10311579D02*
X7849301Y-10292531D01*
X7849301Y-10292531D02*
X7858824Y-10283008D01*
X7858824Y-10283008D02*
X7877872Y-10273484D01*
X8030253Y-10454436D02*
X8039777Y-10463960D01*
X8039777Y-10463960D02*
X8030253Y-10473484D01*
X8030253Y-10473484D02*
X8020729Y-10463960D01*
X8020729Y-10463960D02*
X8030253Y-10454436D01*
X8030253Y-10454436D02*
X8030253Y-10473484D01*
X8211205Y-10273484D02*
X8173110Y-10273484D01*
X8173110Y-10273484D02*
X8154062Y-10283008D01*
X8154062Y-10283008D02*
X8144539Y-10292531D01*
X8144539Y-10292531D02*
X8125491Y-10321103D01*
X8125491Y-10321103D02*
X8115967Y-10359198D01*
X8115967Y-10359198D02*
X8115967Y-10435389D01*
X8115967Y-10435389D02*
X8125491Y-10454436D01*
X8125491Y-10454436D02*
X8135015Y-10463960D01*
X8135015Y-10463960D02*
X8154062Y-10473484D01*
X8154062Y-10473484D02*
X8192158Y-10473484D01*
X8192158Y-10473484D02*
X8211205Y-10463960D01*
X8211205Y-10463960D02*
X8220729Y-10454436D01*
X8220729Y-10454436D02*
X8230253Y-10435389D01*
X8230253Y-10435389D02*
X8230253Y-10387770D01*
X8230253Y-10387770D02*
X8220729Y-10368722D01*
X8220729Y-10368722D02*
X8211205Y-10359198D01*
X8211205Y-10359198D02*
X8192158Y-10349674D01*
X8192158Y-10349674D02*
X8154062Y-10349674D01*
X8154062Y-10349674D02*
X8135015Y-10359198D01*
X8135015Y-10359198D02*
X8125491Y-10368722D01*
X8125491Y-10368722D02*
X8115967Y-10387770D01*
X8354062Y-10273484D02*
X8373110Y-10273484D01*
X8373110Y-10273484D02*
X8392158Y-10283008D01*
X8392158Y-10283008D02*
X8401682Y-10292531D01*
X8401682Y-10292531D02*
X8411205Y-10311579D01*
X8411205Y-10311579D02*
X8420729Y-10349674D01*
X8420729Y-10349674D02*
X8420729Y-10397293D01*
X8420729Y-10397293D02*
X8411205Y-10435389D01*
X8411205Y-10435389D02*
X8401682Y-10454436D01*
X8401682Y-10454436D02*
X8392158Y-10463960D01*
X8392158Y-10463960D02*
X8373110Y-10473484D01*
X8373110Y-10473484D02*
X8354062Y-10473484D01*
X8354062Y-10473484D02*
X8335015Y-10463960D01*
X8335015Y-10463960D02*
X8325491Y-10454436D01*
X8325491Y-10454436D02*
X8315967Y-10435389D01*
X8315967Y-10435389D02*
X8306443Y-10397293D01*
X8306443Y-10397293D02*
X8306443Y-10349674D01*
X8306443Y-10349674D02*
X8315967Y-10311579D01*
X8315967Y-10311579D02*
X8325491Y-10292531D01*
X8325491Y-10292531D02*
X8335015Y-10283008D01*
X8335015Y-10283008D02*
X8354062Y-10273484D01*
X8544539Y-10273484D02*
X8563586Y-10273484D01*
X8563586Y-10273484D02*
X8582634Y-10283008D01*
X8582634Y-10283008D02*
X8592158Y-10292531D01*
X8592158Y-10292531D02*
X8601682Y-10311579D01*
X8601682Y-10311579D02*
X8611205Y-10349674D01*
X8611205Y-10349674D02*
X8611205Y-10397293D01*
X8611205Y-10397293D02*
X8601682Y-10435389D01*
X8601682Y-10435389D02*
X8592158Y-10454436D01*
X8592158Y-10454436D02*
X8582634Y-10463960D01*
X8582634Y-10463960D02*
X8563586Y-10473484D01*
X8563586Y-10473484D02*
X8544539Y-10473484D01*
X8544539Y-10473484D02*
X8525491Y-10463960D01*
X8525491Y-10463960D02*
X8515967Y-10454436D01*
X8515967Y-10454436D02*
X8506444Y-10435389D01*
X8506444Y-10435389D02*
X8496920Y-10397293D01*
X8496920Y-10397293D02*
X8496920Y-10349674D01*
X8496920Y-10349674D02*
X8506444Y-10311579D01*
X8506444Y-10311579D02*
X8515967Y-10292531D01*
X8515967Y-10292531D02*
X8525491Y-10283008D01*
X8525491Y-10283008D02*
X8544539Y-10273484D01*
X8696920Y-10473484D02*
X8696920Y-10340150D01*
X8696920Y-10359198D02*
X8706444Y-10349674D01*
X8706444Y-10349674D02*
X8725491Y-10340150D01*
X8725491Y-10340150D02*
X8754063Y-10340150D01*
X8754063Y-10340150D02*
X8773110Y-10349674D01*
X8773110Y-10349674D02*
X8782634Y-10368722D01*
X8782634Y-10368722D02*
X8782634Y-10473484D01*
X8782634Y-10368722D02*
X8792158Y-10349674D01*
X8792158Y-10349674D02*
X8811205Y-10340150D01*
X8811205Y-10340150D02*
X8839777Y-10340150D01*
X8839777Y-10340150D02*
X8858825Y-10349674D01*
X8858825Y-10349674D02*
X8868348Y-10368722D01*
X8868348Y-10368722D02*
X8868348Y-10473484D01*
X8963586Y-10473484D02*
X8963586Y-10340150D01*
X8963586Y-10359198D02*
X8973110Y-10349674D01*
X8973110Y-10349674D02*
X8992158Y-10340150D01*
X8992158Y-10340150D02*
X9020729Y-10340150D01*
X9020729Y-10340150D02*
X9039777Y-10349674D01*
X9039777Y-10349674D02*
X9049301Y-10368722D01*
X9049301Y-10368722D02*
X9049301Y-10473484D01*
X9049301Y-10368722D02*
X9058825Y-10349674D01*
X9058825Y-10349674D02*
X9077872Y-10340150D01*
X9077872Y-10340150D02*
X9106444Y-10340150D01*
X9106444Y-10340150D02*
X9125491Y-10349674D01*
X9125491Y-10349674D02*
X9135015Y-10368722D01*
X9135015Y-10368722D02*
X9135015Y-10473484D01*
X9525491Y-10263960D02*
X9354063Y-10521103D01*
X9782634Y-10273484D02*
X9801682Y-10273484D01*
X9801682Y-10273484D02*
X9820729Y-10283008D01*
X9820729Y-10283008D02*
X9830253Y-10292531D01*
X9830253Y-10292531D02*
X9839777Y-10311579D01*
X9839777Y-10311579D02*
X9849301Y-10349674D01*
X9849301Y-10349674D02*
X9849301Y-10397293D01*
X9849301Y-10397293D02*
X9839777Y-10435389D01*
X9839777Y-10435389D02*
X9830253Y-10454436D01*
X9830253Y-10454436D02*
X9820729Y-10463960D01*
X9820729Y-10463960D02*
X9801682Y-10473484D01*
X9801682Y-10473484D02*
X9782634Y-10473484D01*
X9782634Y-10473484D02*
X9763587Y-10463960D01*
X9763587Y-10463960D02*
X9754063Y-10454436D01*
X9754063Y-10454436D02*
X9744539Y-10435389D01*
X9744539Y-10435389D02*
X9735015Y-10397293D01*
X9735015Y-10397293D02*
X9735015Y-10349674D01*
X9735015Y-10349674D02*
X9744539Y-10311579D01*
X9744539Y-10311579D02*
X9754063Y-10292531D01*
X9754063Y-10292531D02*
X9763587Y-10283008D01*
X9763587Y-10283008D02*
X9782634Y-10273484D01*
X9935015Y-10454436D02*
X9944539Y-10463960D01*
X9944539Y-10463960D02*
X9935015Y-10473484D01*
X9935015Y-10473484D02*
X9925491Y-10463960D01*
X9925491Y-10463960D02*
X9935015Y-10454436D01*
X9935015Y-10454436D02*
X9935015Y-10473484D01*
X10068348Y-10273484D02*
X10087396Y-10273484D01*
X10087396Y-10273484D02*
X10106444Y-10283008D01*
X10106444Y-10283008D02*
X10115968Y-10292531D01*
X10115968Y-10292531D02*
X10125491Y-10311579D01*
X10125491Y-10311579D02*
X10135015Y-10349674D01*
X10135015Y-10349674D02*
X10135015Y-10397293D01*
X10135015Y-10397293D02*
X10125491Y-10435389D01*
X10125491Y-10435389D02*
X10115968Y-10454436D01*
X10115968Y-10454436D02*
X10106444Y-10463960D01*
X10106444Y-10463960D02*
X10087396Y-10473484D01*
X10087396Y-10473484D02*
X10068348Y-10473484D01*
X10068348Y-10473484D02*
X10049301Y-10463960D01*
X10049301Y-10463960D02*
X10039777Y-10454436D01*
X10039777Y-10454436D02*
X10030253Y-10435389D01*
X10030253Y-10435389D02*
X10020729Y-10397293D01*
X10020729Y-10397293D02*
X10020729Y-10349674D01*
X10020729Y-10349674D02*
X10030253Y-10311579D01*
X10030253Y-10311579D02*
X10039777Y-10292531D01*
X10039777Y-10292531D02*
X10049301Y-10283008D01*
X10049301Y-10283008D02*
X10068348Y-10273484D01*
X10211206Y-10292531D02*
X10220729Y-10283008D01*
X10220729Y-10283008D02*
X10239777Y-10273484D01*
X10239777Y-10273484D02*
X10287396Y-10273484D01*
X10287396Y-10273484D02*
X10306444Y-10283008D01*
X10306444Y-10283008D02*
X10315968Y-10292531D01*
X10315968Y-10292531D02*
X10325491Y-10311579D01*
X10325491Y-10311579D02*
X10325491Y-10330627D01*
X10325491Y-10330627D02*
X10315968Y-10359198D01*
X10315968Y-10359198D02*
X10201682Y-10473484D01*
X10201682Y-10473484D02*
X10325491Y-10473484D01*
X10392158Y-10273484D02*
X10515968Y-10273484D01*
X10515968Y-10273484D02*
X10449301Y-10349674D01*
X10449301Y-10349674D02*
X10477872Y-10349674D01*
X10477872Y-10349674D02*
X10496920Y-10359198D01*
X10496920Y-10359198D02*
X10506444Y-10368722D01*
X10506444Y-10368722D02*
X10515968Y-10387770D01*
X10515968Y-10387770D02*
X10515968Y-10435389D01*
X10515968Y-10435389D02*
X10506444Y-10454436D01*
X10506444Y-10454436D02*
X10496920Y-10463960D01*
X10496920Y-10463960D02*
X10477872Y-10473484D01*
X10477872Y-10473484D02*
X10420729Y-10473484D01*
X10420729Y-10473484D02*
X10401682Y-10463960D01*
X10401682Y-10463960D02*
X10392158Y-10454436D01*
X10687396Y-10273484D02*
X10649301Y-10273484D01*
X10649301Y-10273484D02*
X10630253Y-10283008D01*
X10630253Y-10283008D02*
X10620729Y-10292531D01*
X10620729Y-10292531D02*
X10601682Y-10321103D01*
X10601682Y-10321103D02*
X10592158Y-10359198D01*
X10592158Y-10359198D02*
X10592158Y-10435389D01*
X10592158Y-10435389D02*
X10601682Y-10454436D01*
X10601682Y-10454436D02*
X10611206Y-10463960D01*
X10611206Y-10463960D02*
X10630253Y-10473484D01*
X10630253Y-10473484D02*
X10668349Y-10473484D01*
X10668349Y-10473484D02*
X10687396Y-10463960D01*
X10687396Y-10463960D02*
X10696920Y-10454436D01*
X10696920Y-10454436D02*
X10706444Y-10435389D01*
X10706444Y-10435389D02*
X10706444Y-10387770D01*
X10706444Y-10387770D02*
X10696920Y-10368722D01*
X10696920Y-10368722D02*
X10687396Y-10359198D01*
X10687396Y-10359198D02*
X10668349Y-10349674D01*
X10668349Y-10349674D02*
X10630253Y-10349674D01*
X10630253Y-10349674D02*
X10611206Y-10359198D01*
X10611206Y-10359198D02*
X10601682Y-10368722D01*
X10601682Y-10368722D02*
X10592158Y-10387770D01*
X10782634Y-10273484D02*
X10782634Y-10311579D01*
X10858825Y-10273484D02*
X10858825Y-10311579D01*
X11154063Y-10549674D02*
X11144539Y-10540150D01*
X11144539Y-10540150D02*
X11125491Y-10511579D01*
X11125491Y-10511579D02*
X11115968Y-10492531D01*
X11115968Y-10492531D02*
X11106444Y-10463960D01*
X11106444Y-10463960D02*
X11096920Y-10416341D01*
X11096920Y-10416341D02*
X11096920Y-10378246D01*
X11096920Y-10378246D02*
X11106444Y-10330627D01*
X11106444Y-10330627D02*
X11115968Y-10302055D01*
X11115968Y-10302055D02*
X11125491Y-10283008D01*
X11125491Y-10283008D02*
X11144539Y-10254436D01*
X11144539Y-10254436D02*
X11154063Y-10244912D01*
X11268348Y-10273484D02*
X11287396Y-10273484D01*
X11287396Y-10273484D02*
X11306444Y-10283008D01*
X11306444Y-10283008D02*
X11315968Y-10292531D01*
X11315968Y-10292531D02*
X11325491Y-10311579D01*
X11325491Y-10311579D02*
X11335015Y-10349674D01*
X11335015Y-10349674D02*
X11335015Y-10397293D01*
X11335015Y-10397293D02*
X11325491Y-10435389D01*
X11325491Y-10435389D02*
X11315968Y-10454436D01*
X11315968Y-10454436D02*
X11306444Y-10463960D01*
X11306444Y-10463960D02*
X11287396Y-10473484D01*
X11287396Y-10473484D02*
X11268348Y-10473484D01*
X11268348Y-10473484D02*
X11249301Y-10463960D01*
X11249301Y-10463960D02*
X11239777Y-10454436D01*
X11239777Y-10454436D02*
X11230253Y-10435389D01*
X11230253Y-10435389D02*
X11220729Y-10397293D01*
X11220729Y-10397293D02*
X11220729Y-10349674D01*
X11220729Y-10349674D02*
X11230253Y-10311579D01*
X11230253Y-10311579D02*
X11239777Y-10292531D01*
X11239777Y-10292531D02*
X11249301Y-10283008D01*
X11249301Y-10283008D02*
X11268348Y-10273484D01*
X11573110Y-10473484D02*
X11573110Y-10273484D01*
X11658825Y-10473484D02*
X11658825Y-10368722D01*
X11658825Y-10368722D02*
X11649301Y-10349674D01*
X11649301Y-10349674D02*
X11630253Y-10340150D01*
X11630253Y-10340150D02*
X11601682Y-10340150D01*
X11601682Y-10340150D02*
X11582634Y-10349674D01*
X11582634Y-10349674D02*
X11573110Y-10359198D01*
X11782634Y-10473484D02*
X11763587Y-10463960D01*
X11763587Y-10463960D02*
X11754063Y-10454436D01*
X11754063Y-10454436D02*
X11744539Y-10435389D01*
X11744539Y-10435389D02*
X11744539Y-10378246D01*
X11744539Y-10378246D02*
X11754063Y-10359198D01*
X11754063Y-10359198D02*
X11763587Y-10349674D01*
X11763587Y-10349674D02*
X11782634Y-10340150D01*
X11782634Y-10340150D02*
X11811206Y-10340150D01*
X11811206Y-10340150D02*
X11830253Y-10349674D01*
X11830253Y-10349674D02*
X11839777Y-10359198D01*
X11839777Y-10359198D02*
X11849301Y-10378246D01*
X11849301Y-10378246D02*
X11849301Y-10435389D01*
X11849301Y-10435389D02*
X11839777Y-10454436D01*
X11839777Y-10454436D02*
X11830253Y-10463960D01*
X11830253Y-10463960D02*
X11811206Y-10473484D01*
X11811206Y-10473484D02*
X11782634Y-10473484D01*
X11963587Y-10473484D02*
X11944539Y-10463960D01*
X11944539Y-10463960D02*
X11935015Y-10444912D01*
X11935015Y-10444912D02*
X11935015Y-10273484D01*
X12115968Y-10463960D02*
X12096920Y-10473484D01*
X12096920Y-10473484D02*
X12058825Y-10473484D01*
X12058825Y-10473484D02*
X12039777Y-10463960D01*
X12039777Y-10463960D02*
X12030253Y-10444912D01*
X12030253Y-10444912D02*
X12030253Y-10368722D01*
X12030253Y-10368722D02*
X12039777Y-10349674D01*
X12039777Y-10349674D02*
X12058825Y-10340150D01*
X12058825Y-10340150D02*
X12096920Y-10340150D01*
X12096920Y-10340150D02*
X12115968Y-10349674D01*
X12115968Y-10349674D02*
X12125491Y-10368722D01*
X12125491Y-10368722D02*
X12125491Y-10387770D01*
X12125491Y-10387770D02*
X12030253Y-10406817D01*
X12201682Y-10463960D02*
X12220730Y-10473484D01*
X12220730Y-10473484D02*
X12258825Y-10473484D01*
X12258825Y-10473484D02*
X12277872Y-10463960D01*
X12277872Y-10463960D02*
X12287396Y-10444912D01*
X12287396Y-10444912D02*
X12287396Y-10435389D01*
X12287396Y-10435389D02*
X12277872Y-10416341D01*
X12277872Y-10416341D02*
X12258825Y-10406817D01*
X12258825Y-10406817D02*
X12230253Y-10406817D01*
X12230253Y-10406817D02*
X12211206Y-10397293D01*
X12211206Y-10397293D02*
X12201682Y-10378246D01*
X12201682Y-10378246D02*
X12201682Y-10368722D01*
X12201682Y-10368722D02*
X12211206Y-10349674D01*
X12211206Y-10349674D02*
X12230253Y-10340150D01*
X12230253Y-10340150D02*
X12258825Y-10340150D01*
X12258825Y-10340150D02*
X12277872Y-10349674D01*
X12525492Y-10397293D02*
X12677873Y-10397293D01*
X12601682Y-10473484D02*
X12601682Y-10321103D01*
X12954063Y-10359198D02*
X12935015Y-10349674D01*
X12935015Y-10349674D02*
X12925492Y-10340150D01*
X12925492Y-10340150D02*
X12915968Y-10321103D01*
X12915968Y-10321103D02*
X12915968Y-10311579D01*
X12915968Y-10311579D02*
X12925492Y-10292531D01*
X12925492Y-10292531D02*
X12935015Y-10283008D01*
X12935015Y-10283008D02*
X12954063Y-10273484D01*
X12954063Y-10273484D02*
X12992158Y-10273484D01*
X12992158Y-10273484D02*
X13011206Y-10283008D01*
X13011206Y-10283008D02*
X13020730Y-10292531D01*
X13020730Y-10292531D02*
X13030253Y-10311579D01*
X13030253Y-10311579D02*
X13030253Y-10321103D01*
X13030253Y-10321103D02*
X13020730Y-10340150D01*
X13020730Y-10340150D02*
X13011206Y-10349674D01*
X13011206Y-10349674D02*
X12992158Y-10359198D01*
X12992158Y-10359198D02*
X12954063Y-10359198D01*
X12954063Y-10359198D02*
X12935015Y-10368722D01*
X12935015Y-10368722D02*
X12925492Y-10378246D01*
X12925492Y-10378246D02*
X12915968Y-10397293D01*
X12915968Y-10397293D02*
X12915968Y-10435389D01*
X12915968Y-10435389D02*
X12925492Y-10454436D01*
X12925492Y-10454436D02*
X12935015Y-10463960D01*
X12935015Y-10463960D02*
X12954063Y-10473484D01*
X12954063Y-10473484D02*
X12992158Y-10473484D01*
X12992158Y-10473484D02*
X13011206Y-10463960D01*
X13011206Y-10463960D02*
X13020730Y-10454436D01*
X13020730Y-10454436D02*
X13030253Y-10435389D01*
X13030253Y-10435389D02*
X13030253Y-10397293D01*
X13030253Y-10397293D02*
X13020730Y-10378246D01*
X13020730Y-10378246D02*
X13011206Y-10368722D01*
X13011206Y-10368722D02*
X12992158Y-10359198D01*
X13258825Y-10463960D02*
X13277873Y-10473484D01*
X13277873Y-10473484D02*
X13315968Y-10473484D01*
X13315968Y-10473484D02*
X13335015Y-10463960D01*
X13335015Y-10463960D02*
X13344539Y-10444912D01*
X13344539Y-10444912D02*
X13344539Y-10435389D01*
X13344539Y-10435389D02*
X13335015Y-10416341D01*
X13335015Y-10416341D02*
X13315968Y-10406817D01*
X13315968Y-10406817D02*
X13287396Y-10406817D01*
X13287396Y-10406817D02*
X13268349Y-10397293D01*
X13268349Y-10397293D02*
X13258825Y-10378246D01*
X13258825Y-10378246D02*
X13258825Y-10368722D01*
X13258825Y-10368722D02*
X13268349Y-10349674D01*
X13268349Y-10349674D02*
X13287396Y-10340150D01*
X13287396Y-10340150D02*
X13315968Y-10340150D01*
X13315968Y-10340150D02*
X13335015Y-10349674D01*
X13458825Y-10473484D02*
X13439777Y-10463960D01*
X13439777Y-10463960D02*
X13430254Y-10444912D01*
X13430254Y-10444912D02*
X13430254Y-10273484D01*
X13563587Y-10473484D02*
X13544539Y-10463960D01*
X13544539Y-10463960D02*
X13535015Y-10454436D01*
X13535015Y-10454436D02*
X13525492Y-10435389D01*
X13525492Y-10435389D02*
X13525492Y-10378246D01*
X13525492Y-10378246D02*
X13535015Y-10359198D01*
X13535015Y-10359198D02*
X13544539Y-10349674D01*
X13544539Y-10349674D02*
X13563587Y-10340150D01*
X13563587Y-10340150D02*
X13592158Y-10340150D01*
X13592158Y-10340150D02*
X13611206Y-10349674D01*
X13611206Y-10349674D02*
X13620730Y-10359198D01*
X13620730Y-10359198D02*
X13630254Y-10378246D01*
X13630254Y-10378246D02*
X13630254Y-10435389D01*
X13630254Y-10435389D02*
X13620730Y-10454436D01*
X13620730Y-10454436D02*
X13611206Y-10463960D01*
X13611206Y-10463960D02*
X13592158Y-10473484D01*
X13592158Y-10473484D02*
X13563587Y-10473484D01*
X13687396Y-10340150D02*
X13763587Y-10340150D01*
X13715968Y-10273484D02*
X13715968Y-10444912D01*
X13715968Y-10444912D02*
X13725492Y-10463960D01*
X13725492Y-10463960D02*
X13744539Y-10473484D01*
X13744539Y-10473484D02*
X13763587Y-10473484D01*
X13820730Y-10463960D02*
X13839777Y-10473484D01*
X13839777Y-10473484D02*
X13877873Y-10473484D01*
X13877873Y-10473484D02*
X13896920Y-10463960D01*
X13896920Y-10463960D02*
X13906444Y-10444912D01*
X13906444Y-10444912D02*
X13906444Y-10435389D01*
X13906444Y-10435389D02*
X13896920Y-10416341D01*
X13896920Y-10416341D02*
X13877873Y-10406817D01*
X13877873Y-10406817D02*
X13849301Y-10406817D01*
X13849301Y-10406817D02*
X13830254Y-10397293D01*
X13830254Y-10397293D02*
X13820730Y-10378246D01*
X13820730Y-10378246D02*
X13820730Y-10368722D01*
X13820730Y-10368722D02*
X13830254Y-10349674D01*
X13830254Y-10349674D02*
X13849301Y-10340150D01*
X13849301Y-10340150D02*
X13877873Y-10340150D01*
X13877873Y-10340150D02*
X13896920Y-10349674D01*
X13973111Y-10549674D02*
X13982635Y-10540150D01*
X13982635Y-10540150D02*
X14001682Y-10511579D01*
X14001682Y-10511579D02*
X14011206Y-10492531D01*
X14011206Y-10492531D02*
X14020730Y-10463960D01*
X14020730Y-10463960D02*
X14030254Y-10416341D01*
X14030254Y-10416341D02*
X14030254Y-10378246D01*
X14030254Y-10378246D02*
X14020730Y-10330627D01*
X14020730Y-10330627D02*
X14011206Y-10302055D01*
X14011206Y-10302055D02*
X14001682Y-10283008D01*
X14001682Y-10283008D02*
X13982635Y-10254436D01*
X13982635Y-10254436D02*
X13973111Y-10244912D01*
D10*
X7529000Y-10696000D02*
X7579000Y-10646000D01*
X7529000Y-10596000D01*
X7479000Y-10646000D01*
X7529000Y-10696000D01*
D11*
X7944539Y-10737484D02*
X7830253Y-10737484D01*
X7887396Y-10737484D02*
X7887396Y-10537484D01*
X7887396Y-10537484D02*
X7868348Y-10566055D01*
X7868348Y-10566055D02*
X7849301Y-10585103D01*
X7849301Y-10585103D02*
X7830253Y-10594627D01*
X8030253Y-10718436D02*
X8039777Y-10727960D01*
X8039777Y-10727960D02*
X8030253Y-10737484D01*
X8030253Y-10737484D02*
X8020729Y-10727960D01*
X8020729Y-10727960D02*
X8030253Y-10718436D01*
X8030253Y-10718436D02*
X8030253Y-10737484D01*
X8163586Y-10537484D02*
X8182634Y-10537484D01*
X8182634Y-10537484D02*
X8201682Y-10547008D01*
X8201682Y-10547008D02*
X8211205Y-10556531D01*
X8211205Y-10556531D02*
X8220729Y-10575579D01*
X8220729Y-10575579D02*
X8230253Y-10613674D01*
X8230253Y-10613674D02*
X8230253Y-10661293D01*
X8230253Y-10661293D02*
X8220729Y-10699389D01*
X8220729Y-10699389D02*
X8211205Y-10718436D01*
X8211205Y-10718436D02*
X8201682Y-10727960D01*
X8201682Y-10727960D02*
X8182634Y-10737484D01*
X8182634Y-10737484D02*
X8163586Y-10737484D01*
X8163586Y-10737484D02*
X8144539Y-10727960D01*
X8144539Y-10727960D02*
X8135015Y-10718436D01*
X8135015Y-10718436D02*
X8125491Y-10699389D01*
X8125491Y-10699389D02*
X8115967Y-10661293D01*
X8115967Y-10661293D02*
X8115967Y-10613674D01*
X8115967Y-10613674D02*
X8125491Y-10575579D01*
X8125491Y-10575579D02*
X8135015Y-10556531D01*
X8135015Y-10556531D02*
X8144539Y-10547008D01*
X8144539Y-10547008D02*
X8163586Y-10537484D01*
X8354062Y-10537484D02*
X8373110Y-10537484D01*
X8373110Y-10537484D02*
X8392158Y-10547008D01*
X8392158Y-10547008D02*
X8401682Y-10556531D01*
X8401682Y-10556531D02*
X8411205Y-10575579D01*
X8411205Y-10575579D02*
X8420729Y-10613674D01*
X8420729Y-10613674D02*
X8420729Y-10661293D01*
X8420729Y-10661293D02*
X8411205Y-10699389D01*
X8411205Y-10699389D02*
X8401682Y-10718436D01*
X8401682Y-10718436D02*
X8392158Y-10727960D01*
X8392158Y-10727960D02*
X8373110Y-10737484D01*
X8373110Y-10737484D02*
X8354062Y-10737484D01*
X8354062Y-10737484D02*
X8335015Y-10727960D01*
X8335015Y-10727960D02*
X8325491Y-10718436D01*
X8325491Y-10718436D02*
X8315967Y-10699389D01*
X8315967Y-10699389D02*
X8306443Y-10661293D01*
X8306443Y-10661293D02*
X8306443Y-10613674D01*
X8306443Y-10613674D02*
X8315967Y-10575579D01*
X8315967Y-10575579D02*
X8325491Y-10556531D01*
X8325491Y-10556531D02*
X8335015Y-10547008D01*
X8335015Y-10547008D02*
X8354062Y-10537484D01*
X8544539Y-10537484D02*
X8563586Y-10537484D01*
X8563586Y-10537484D02*
X8582634Y-10547008D01*
X8582634Y-10547008D02*
X8592158Y-10556531D01*
X8592158Y-10556531D02*
X8601682Y-10575579D01*
X8601682Y-10575579D02*
X8611205Y-10613674D01*
X8611205Y-10613674D02*
X8611205Y-10661293D01*
X8611205Y-10661293D02*
X8601682Y-10699389D01*
X8601682Y-10699389D02*
X8592158Y-10718436D01*
X8592158Y-10718436D02*
X8582634Y-10727960D01*
X8582634Y-10727960D02*
X8563586Y-10737484D01*
X8563586Y-10737484D02*
X8544539Y-10737484D01*
X8544539Y-10737484D02*
X8525491Y-10727960D01*
X8525491Y-10727960D02*
X8515967Y-10718436D01*
X8515967Y-10718436D02*
X8506444Y-10699389D01*
X8506444Y-10699389D02*
X8496920Y-10661293D01*
X8496920Y-10661293D02*
X8496920Y-10613674D01*
X8496920Y-10613674D02*
X8506444Y-10575579D01*
X8506444Y-10575579D02*
X8515967Y-10556531D01*
X8515967Y-10556531D02*
X8525491Y-10547008D01*
X8525491Y-10547008D02*
X8544539Y-10537484D01*
X8696920Y-10737484D02*
X8696920Y-10604150D01*
X8696920Y-10623198D02*
X8706444Y-10613674D01*
X8706444Y-10613674D02*
X8725491Y-10604150D01*
X8725491Y-10604150D02*
X8754063Y-10604150D01*
X8754063Y-10604150D02*
X8773110Y-10613674D01*
X8773110Y-10613674D02*
X8782634Y-10632722D01*
X8782634Y-10632722D02*
X8782634Y-10737484D01*
X8782634Y-10632722D02*
X8792158Y-10613674D01*
X8792158Y-10613674D02*
X8811205Y-10604150D01*
X8811205Y-10604150D02*
X8839777Y-10604150D01*
X8839777Y-10604150D02*
X8858825Y-10613674D01*
X8858825Y-10613674D02*
X8868348Y-10632722D01*
X8868348Y-10632722D02*
X8868348Y-10737484D01*
X8963586Y-10737484D02*
X8963586Y-10604150D01*
X8963586Y-10623198D02*
X8973110Y-10613674D01*
X8973110Y-10613674D02*
X8992158Y-10604150D01*
X8992158Y-10604150D02*
X9020729Y-10604150D01*
X9020729Y-10604150D02*
X9039777Y-10613674D01*
X9039777Y-10613674D02*
X9049301Y-10632722D01*
X9049301Y-10632722D02*
X9049301Y-10737484D01*
X9049301Y-10632722D02*
X9058825Y-10613674D01*
X9058825Y-10613674D02*
X9077872Y-10604150D01*
X9077872Y-10604150D02*
X9106444Y-10604150D01*
X9106444Y-10604150D02*
X9125491Y-10613674D01*
X9125491Y-10613674D02*
X9135015Y-10632722D01*
X9135015Y-10632722D02*
X9135015Y-10737484D01*
X9525491Y-10527960D02*
X9354063Y-10785103D01*
X9782634Y-10537484D02*
X9801682Y-10537484D01*
X9801682Y-10537484D02*
X9820729Y-10547008D01*
X9820729Y-10547008D02*
X9830253Y-10556531D01*
X9830253Y-10556531D02*
X9839777Y-10575579D01*
X9839777Y-10575579D02*
X9849301Y-10613674D01*
X9849301Y-10613674D02*
X9849301Y-10661293D01*
X9849301Y-10661293D02*
X9839777Y-10699389D01*
X9839777Y-10699389D02*
X9830253Y-10718436D01*
X9830253Y-10718436D02*
X9820729Y-10727960D01*
X9820729Y-10727960D02*
X9801682Y-10737484D01*
X9801682Y-10737484D02*
X9782634Y-10737484D01*
X9782634Y-10737484D02*
X9763587Y-10727960D01*
X9763587Y-10727960D02*
X9754063Y-10718436D01*
X9754063Y-10718436D02*
X9744539Y-10699389D01*
X9744539Y-10699389D02*
X9735015Y-10661293D01*
X9735015Y-10661293D02*
X9735015Y-10613674D01*
X9735015Y-10613674D02*
X9744539Y-10575579D01*
X9744539Y-10575579D02*
X9754063Y-10556531D01*
X9754063Y-10556531D02*
X9763587Y-10547008D01*
X9763587Y-10547008D02*
X9782634Y-10537484D01*
X9935015Y-10718436D02*
X9944539Y-10727960D01*
X9944539Y-10727960D02*
X9935015Y-10737484D01*
X9935015Y-10737484D02*
X9925491Y-10727960D01*
X9925491Y-10727960D02*
X9935015Y-10718436D01*
X9935015Y-10718436D02*
X9935015Y-10737484D01*
X10068348Y-10537484D02*
X10087396Y-10537484D01*
X10087396Y-10537484D02*
X10106444Y-10547008D01*
X10106444Y-10547008D02*
X10115968Y-10556531D01*
X10115968Y-10556531D02*
X10125491Y-10575579D01*
X10125491Y-10575579D02*
X10135015Y-10613674D01*
X10135015Y-10613674D02*
X10135015Y-10661293D01*
X10135015Y-10661293D02*
X10125491Y-10699389D01*
X10125491Y-10699389D02*
X10115968Y-10718436D01*
X10115968Y-10718436D02*
X10106444Y-10727960D01*
X10106444Y-10727960D02*
X10087396Y-10737484D01*
X10087396Y-10737484D02*
X10068348Y-10737484D01*
X10068348Y-10737484D02*
X10049301Y-10727960D01*
X10049301Y-10727960D02*
X10039777Y-10718436D01*
X10039777Y-10718436D02*
X10030253Y-10699389D01*
X10030253Y-10699389D02*
X10020729Y-10661293D01*
X10020729Y-10661293D02*
X10020729Y-10613674D01*
X10020729Y-10613674D02*
X10030253Y-10575579D01*
X10030253Y-10575579D02*
X10039777Y-10556531D01*
X10039777Y-10556531D02*
X10049301Y-10547008D01*
X10049301Y-10547008D02*
X10068348Y-10537484D01*
X10201682Y-10537484D02*
X10325491Y-10537484D01*
X10325491Y-10537484D02*
X10258825Y-10613674D01*
X10258825Y-10613674D02*
X10287396Y-10613674D01*
X10287396Y-10613674D02*
X10306444Y-10623198D01*
X10306444Y-10623198D02*
X10315968Y-10632722D01*
X10315968Y-10632722D02*
X10325491Y-10651770D01*
X10325491Y-10651770D02*
X10325491Y-10699389D01*
X10325491Y-10699389D02*
X10315968Y-10718436D01*
X10315968Y-10718436D02*
X10306444Y-10727960D01*
X10306444Y-10727960D02*
X10287396Y-10737484D01*
X10287396Y-10737484D02*
X10230253Y-10737484D01*
X10230253Y-10737484D02*
X10211206Y-10727960D01*
X10211206Y-10727960D02*
X10201682Y-10718436D01*
X10420729Y-10737484D02*
X10458825Y-10737484D01*
X10458825Y-10737484D02*
X10477872Y-10727960D01*
X10477872Y-10727960D02*
X10487396Y-10718436D01*
X10487396Y-10718436D02*
X10506444Y-10689865D01*
X10506444Y-10689865D02*
X10515968Y-10651770D01*
X10515968Y-10651770D02*
X10515968Y-10575579D01*
X10515968Y-10575579D02*
X10506444Y-10556531D01*
X10506444Y-10556531D02*
X10496920Y-10547008D01*
X10496920Y-10547008D02*
X10477872Y-10537484D01*
X10477872Y-10537484D02*
X10439777Y-10537484D01*
X10439777Y-10537484D02*
X10420729Y-10547008D01*
X10420729Y-10547008D02*
X10411206Y-10556531D01*
X10411206Y-10556531D02*
X10401682Y-10575579D01*
X10401682Y-10575579D02*
X10401682Y-10623198D01*
X10401682Y-10623198D02*
X10411206Y-10642246D01*
X10411206Y-10642246D02*
X10420729Y-10651770D01*
X10420729Y-10651770D02*
X10439777Y-10661293D01*
X10439777Y-10661293D02*
X10477872Y-10661293D01*
X10477872Y-10661293D02*
X10496920Y-10651770D01*
X10496920Y-10651770D02*
X10506444Y-10642246D01*
X10506444Y-10642246D02*
X10515968Y-10623198D01*
X10687396Y-10604150D02*
X10687396Y-10737484D01*
X10639777Y-10527960D02*
X10592158Y-10670817D01*
X10592158Y-10670817D02*
X10715968Y-10670817D01*
X10782634Y-10537484D02*
X10782634Y-10575579D01*
X10858825Y-10537484D02*
X10858825Y-10575579D01*
X11154063Y-10813674D02*
X11144539Y-10804150D01*
X11144539Y-10804150D02*
X11125491Y-10775579D01*
X11125491Y-10775579D02*
X11115968Y-10756531D01*
X11115968Y-10756531D02*
X11106444Y-10727960D01*
X11106444Y-10727960D02*
X11096920Y-10680341D01*
X11096920Y-10680341D02*
X11096920Y-10642246D01*
X11096920Y-10642246D02*
X11106444Y-10594627D01*
X11106444Y-10594627D02*
X11115968Y-10566055D01*
X11115968Y-10566055D02*
X11125491Y-10547008D01*
X11125491Y-10547008D02*
X11144539Y-10518436D01*
X11144539Y-10518436D02*
X11154063Y-10508912D01*
X11220729Y-10556531D02*
X11230253Y-10547008D01*
X11230253Y-10547008D02*
X11249301Y-10537484D01*
X11249301Y-10537484D02*
X11296920Y-10537484D01*
X11296920Y-10537484D02*
X11315968Y-10547008D01*
X11315968Y-10547008D02*
X11325491Y-10556531D01*
X11325491Y-10556531D02*
X11335015Y-10575579D01*
X11335015Y-10575579D02*
X11335015Y-10594627D01*
X11335015Y-10594627D02*
X11325491Y-10623198D01*
X11325491Y-10623198D02*
X11211206Y-10737484D01*
X11211206Y-10737484D02*
X11335015Y-10737484D01*
X11506444Y-10537484D02*
X11468348Y-10537484D01*
X11468348Y-10537484D02*
X11449301Y-10547008D01*
X11449301Y-10547008D02*
X11439777Y-10556531D01*
X11439777Y-10556531D02*
X11420729Y-10585103D01*
X11420729Y-10585103D02*
X11411206Y-10623198D01*
X11411206Y-10623198D02*
X11411206Y-10699389D01*
X11411206Y-10699389D02*
X11420729Y-10718436D01*
X11420729Y-10718436D02*
X11430253Y-10727960D01*
X11430253Y-10727960D02*
X11449301Y-10737484D01*
X11449301Y-10737484D02*
X11487396Y-10737484D01*
X11487396Y-10737484D02*
X11506444Y-10727960D01*
X11506444Y-10727960D02*
X11515968Y-10718436D01*
X11515968Y-10718436D02*
X11525491Y-10699389D01*
X11525491Y-10699389D02*
X11525491Y-10651770D01*
X11525491Y-10651770D02*
X11515968Y-10632722D01*
X11515968Y-10632722D02*
X11506444Y-10623198D01*
X11506444Y-10623198D02*
X11487396Y-10613674D01*
X11487396Y-10613674D02*
X11449301Y-10613674D01*
X11449301Y-10613674D02*
X11430253Y-10623198D01*
X11430253Y-10623198D02*
X11420729Y-10632722D01*
X11420729Y-10632722D02*
X11411206Y-10651770D01*
X11763587Y-10737484D02*
X11763587Y-10537484D01*
X11849301Y-10737484D02*
X11849301Y-10632722D01*
X11849301Y-10632722D02*
X11839777Y-10613674D01*
X11839777Y-10613674D02*
X11820730Y-10604150D01*
X11820730Y-10604150D02*
X11792158Y-10604150D01*
X11792158Y-10604150D02*
X11773110Y-10613674D01*
X11773110Y-10613674D02*
X11763587Y-10623198D01*
X11973110Y-10737484D02*
X11954063Y-10727960D01*
X11954063Y-10727960D02*
X11944539Y-10718436D01*
X11944539Y-10718436D02*
X11935015Y-10699389D01*
X11935015Y-10699389D02*
X11935015Y-10642246D01*
X11935015Y-10642246D02*
X11944539Y-10623198D01*
X11944539Y-10623198D02*
X11954063Y-10613674D01*
X11954063Y-10613674D02*
X11973110Y-10604150D01*
X11973110Y-10604150D02*
X12001682Y-10604150D01*
X12001682Y-10604150D02*
X12020730Y-10613674D01*
X12020730Y-10613674D02*
X12030253Y-10623198D01*
X12030253Y-10623198D02*
X12039777Y-10642246D01*
X12039777Y-10642246D02*
X12039777Y-10699389D01*
X12039777Y-10699389D02*
X12030253Y-10718436D01*
X12030253Y-10718436D02*
X12020730Y-10727960D01*
X12020730Y-10727960D02*
X12001682Y-10737484D01*
X12001682Y-10737484D02*
X11973110Y-10737484D01*
X12154063Y-10737484D02*
X12135015Y-10727960D01*
X12135015Y-10727960D02*
X12125491Y-10708912D01*
X12125491Y-10708912D02*
X12125491Y-10537484D01*
X12306444Y-10727960D02*
X12287396Y-10737484D01*
X12287396Y-10737484D02*
X12249301Y-10737484D01*
X12249301Y-10737484D02*
X12230253Y-10727960D01*
X12230253Y-10727960D02*
X12220730Y-10708912D01*
X12220730Y-10708912D02*
X12220730Y-10632722D01*
X12220730Y-10632722D02*
X12230253Y-10613674D01*
X12230253Y-10613674D02*
X12249301Y-10604150D01*
X12249301Y-10604150D02*
X12287396Y-10604150D01*
X12287396Y-10604150D02*
X12306444Y-10613674D01*
X12306444Y-10613674D02*
X12315968Y-10632722D01*
X12315968Y-10632722D02*
X12315968Y-10651770D01*
X12315968Y-10651770D02*
X12220730Y-10670817D01*
X12392158Y-10727960D02*
X12411206Y-10737484D01*
X12411206Y-10737484D02*
X12449301Y-10737484D01*
X12449301Y-10737484D02*
X12468349Y-10727960D01*
X12468349Y-10727960D02*
X12477872Y-10708912D01*
X12477872Y-10708912D02*
X12477872Y-10699389D01*
X12477872Y-10699389D02*
X12468349Y-10680341D01*
X12468349Y-10680341D02*
X12449301Y-10670817D01*
X12449301Y-10670817D02*
X12420730Y-10670817D01*
X12420730Y-10670817D02*
X12401682Y-10661293D01*
X12401682Y-10661293D02*
X12392158Y-10642246D01*
X12392158Y-10642246D02*
X12392158Y-10632722D01*
X12392158Y-10632722D02*
X12401682Y-10613674D01*
X12401682Y-10613674D02*
X12420730Y-10604150D01*
X12420730Y-10604150D02*
X12449301Y-10604150D01*
X12449301Y-10604150D02*
X12468349Y-10613674D01*
X12544539Y-10813674D02*
X12554063Y-10804150D01*
X12554063Y-10804150D02*
X12573111Y-10775579D01*
X12573111Y-10775579D02*
X12582634Y-10756531D01*
X12582634Y-10756531D02*
X12592158Y-10727960D01*
X12592158Y-10727960D02*
X12601682Y-10680341D01*
X12601682Y-10680341D02*
X12601682Y-10642246D01*
X12601682Y-10642246D02*
X12592158Y-10594627D01*
X12592158Y-10594627D02*
X12582634Y-10566055D01*
X12582634Y-10566055D02*
X12573111Y-10547008D01*
X12573111Y-10547008D02*
X12554063Y-10518436D01*
X12554063Y-10518436D02*
X12544539Y-10508912D01*
D16*
X7399000Y-10820000D02*
X7579000Y-11000000D01*
X7579000Y-10820000D02*
X7399000Y-11000000D01*
X7579000Y-10910000D02*
G75*
G03*
X7579000Y-10910000I-90000J0D01*
G01*
D11*
X7944539Y-11001484D02*
X7830253Y-11001484D01*
X7887396Y-11001484D02*
X7887396Y-10801484D01*
X7887396Y-10801484D02*
X7868348Y-10830055D01*
X7868348Y-10830055D02*
X7849301Y-10849103D01*
X7849301Y-10849103D02*
X7830253Y-10858627D01*
X8030253Y-10982436D02*
X8039777Y-10991960D01*
X8039777Y-10991960D02*
X8030253Y-11001484D01*
X8030253Y-11001484D02*
X8020729Y-10991960D01*
X8020729Y-10991960D02*
X8030253Y-10982436D01*
X8030253Y-10982436D02*
X8030253Y-11001484D01*
X8154062Y-10887198D02*
X8135015Y-10877674D01*
X8135015Y-10877674D02*
X8125491Y-10868150D01*
X8125491Y-10868150D02*
X8115967Y-10849103D01*
X8115967Y-10849103D02*
X8115967Y-10839579D01*
X8115967Y-10839579D02*
X8125491Y-10820531D01*
X8125491Y-10820531D02*
X8135015Y-10811008D01*
X8135015Y-10811008D02*
X8154062Y-10801484D01*
X8154062Y-10801484D02*
X8192158Y-10801484D01*
X8192158Y-10801484D02*
X8211205Y-10811008D01*
X8211205Y-10811008D02*
X8220729Y-10820531D01*
X8220729Y-10820531D02*
X8230253Y-10839579D01*
X8230253Y-10839579D02*
X8230253Y-10849103D01*
X8230253Y-10849103D02*
X8220729Y-10868150D01*
X8220729Y-10868150D02*
X8211205Y-10877674D01*
X8211205Y-10877674D02*
X8192158Y-10887198D01*
X8192158Y-10887198D02*
X8154062Y-10887198D01*
X8154062Y-10887198D02*
X8135015Y-10896722D01*
X8135015Y-10896722D02*
X8125491Y-10906246D01*
X8125491Y-10906246D02*
X8115967Y-10925293D01*
X8115967Y-10925293D02*
X8115967Y-10963389D01*
X8115967Y-10963389D02*
X8125491Y-10982436D01*
X8125491Y-10982436D02*
X8135015Y-10991960D01*
X8135015Y-10991960D02*
X8154062Y-11001484D01*
X8154062Y-11001484D02*
X8192158Y-11001484D01*
X8192158Y-11001484D02*
X8211205Y-10991960D01*
X8211205Y-10991960D02*
X8220729Y-10982436D01*
X8220729Y-10982436D02*
X8230253Y-10963389D01*
X8230253Y-10963389D02*
X8230253Y-10925293D01*
X8230253Y-10925293D02*
X8220729Y-10906246D01*
X8220729Y-10906246D02*
X8211205Y-10896722D01*
X8211205Y-10896722D02*
X8192158Y-10887198D01*
X8354062Y-10801484D02*
X8373110Y-10801484D01*
X8373110Y-10801484D02*
X8392158Y-10811008D01*
X8392158Y-10811008D02*
X8401682Y-10820531D01*
X8401682Y-10820531D02*
X8411205Y-10839579D01*
X8411205Y-10839579D02*
X8420729Y-10877674D01*
X8420729Y-10877674D02*
X8420729Y-10925293D01*
X8420729Y-10925293D02*
X8411205Y-10963389D01*
X8411205Y-10963389D02*
X8401682Y-10982436D01*
X8401682Y-10982436D02*
X8392158Y-10991960D01*
X8392158Y-10991960D02*
X8373110Y-11001484D01*
X8373110Y-11001484D02*
X8354062Y-11001484D01*
X8354062Y-11001484D02*
X8335015Y-10991960D01*
X8335015Y-10991960D02*
X8325491Y-10982436D01*
X8325491Y-10982436D02*
X8315967Y-10963389D01*
X8315967Y-10963389D02*
X8306443Y-10925293D01*
X8306443Y-10925293D02*
X8306443Y-10877674D01*
X8306443Y-10877674D02*
X8315967Y-10839579D01*
X8315967Y-10839579D02*
X8325491Y-10820531D01*
X8325491Y-10820531D02*
X8335015Y-10811008D01*
X8335015Y-10811008D02*
X8354062Y-10801484D01*
X8544539Y-10801484D02*
X8563586Y-10801484D01*
X8563586Y-10801484D02*
X8582634Y-10811008D01*
X8582634Y-10811008D02*
X8592158Y-10820531D01*
X8592158Y-10820531D02*
X8601682Y-10839579D01*
X8601682Y-10839579D02*
X8611205Y-10877674D01*
X8611205Y-10877674D02*
X8611205Y-10925293D01*
X8611205Y-10925293D02*
X8601682Y-10963389D01*
X8601682Y-10963389D02*
X8592158Y-10982436D01*
X8592158Y-10982436D02*
X8582634Y-10991960D01*
X8582634Y-10991960D02*
X8563586Y-11001484D01*
X8563586Y-11001484D02*
X8544539Y-11001484D01*
X8544539Y-11001484D02*
X8525491Y-10991960D01*
X8525491Y-10991960D02*
X8515967Y-10982436D01*
X8515967Y-10982436D02*
X8506444Y-10963389D01*
X8506444Y-10963389D02*
X8496920Y-10925293D01*
X8496920Y-10925293D02*
X8496920Y-10877674D01*
X8496920Y-10877674D02*
X8506444Y-10839579D01*
X8506444Y-10839579D02*
X8515967Y-10820531D01*
X8515967Y-10820531D02*
X8525491Y-10811008D01*
X8525491Y-10811008D02*
X8544539Y-10801484D01*
X8696920Y-11001484D02*
X8696920Y-10868150D01*
X8696920Y-10887198D02*
X8706444Y-10877674D01*
X8706444Y-10877674D02*
X8725491Y-10868150D01*
X8725491Y-10868150D02*
X8754063Y-10868150D01*
X8754063Y-10868150D02*
X8773110Y-10877674D01*
X8773110Y-10877674D02*
X8782634Y-10896722D01*
X8782634Y-10896722D02*
X8782634Y-11001484D01*
X8782634Y-10896722D02*
X8792158Y-10877674D01*
X8792158Y-10877674D02*
X8811205Y-10868150D01*
X8811205Y-10868150D02*
X8839777Y-10868150D01*
X8839777Y-10868150D02*
X8858825Y-10877674D01*
X8858825Y-10877674D02*
X8868348Y-10896722D01*
X8868348Y-10896722D02*
X8868348Y-11001484D01*
X8963586Y-11001484D02*
X8963586Y-10868150D01*
X8963586Y-10887198D02*
X8973110Y-10877674D01*
X8973110Y-10877674D02*
X8992158Y-10868150D01*
X8992158Y-10868150D02*
X9020729Y-10868150D01*
X9020729Y-10868150D02*
X9039777Y-10877674D01*
X9039777Y-10877674D02*
X9049301Y-10896722D01*
X9049301Y-10896722D02*
X9049301Y-11001484D01*
X9049301Y-10896722D02*
X9058825Y-10877674D01*
X9058825Y-10877674D02*
X9077872Y-10868150D01*
X9077872Y-10868150D02*
X9106444Y-10868150D01*
X9106444Y-10868150D02*
X9125491Y-10877674D01*
X9125491Y-10877674D02*
X9135015Y-10896722D01*
X9135015Y-10896722D02*
X9135015Y-11001484D01*
X9525491Y-10791960D02*
X9354063Y-11049103D01*
X9782634Y-10801484D02*
X9801682Y-10801484D01*
X9801682Y-10801484D02*
X9820729Y-10811008D01*
X9820729Y-10811008D02*
X9830253Y-10820531D01*
X9830253Y-10820531D02*
X9839777Y-10839579D01*
X9839777Y-10839579D02*
X9849301Y-10877674D01*
X9849301Y-10877674D02*
X9849301Y-10925293D01*
X9849301Y-10925293D02*
X9839777Y-10963389D01*
X9839777Y-10963389D02*
X9830253Y-10982436D01*
X9830253Y-10982436D02*
X9820729Y-10991960D01*
X9820729Y-10991960D02*
X9801682Y-11001484D01*
X9801682Y-11001484D02*
X9782634Y-11001484D01*
X9782634Y-11001484D02*
X9763587Y-10991960D01*
X9763587Y-10991960D02*
X9754063Y-10982436D01*
X9754063Y-10982436D02*
X9744539Y-10963389D01*
X9744539Y-10963389D02*
X9735015Y-10925293D01*
X9735015Y-10925293D02*
X9735015Y-10877674D01*
X9735015Y-10877674D02*
X9744539Y-10839579D01*
X9744539Y-10839579D02*
X9754063Y-10820531D01*
X9754063Y-10820531D02*
X9763587Y-10811008D01*
X9763587Y-10811008D02*
X9782634Y-10801484D01*
X9935015Y-10982436D02*
X9944539Y-10991960D01*
X9944539Y-10991960D02*
X9935015Y-11001484D01*
X9935015Y-11001484D02*
X9925491Y-10991960D01*
X9925491Y-10991960D02*
X9935015Y-10982436D01*
X9935015Y-10982436D02*
X9935015Y-11001484D01*
X10068348Y-10801484D02*
X10087396Y-10801484D01*
X10087396Y-10801484D02*
X10106444Y-10811008D01*
X10106444Y-10811008D02*
X10115968Y-10820531D01*
X10115968Y-10820531D02*
X10125491Y-10839579D01*
X10125491Y-10839579D02*
X10135015Y-10877674D01*
X10135015Y-10877674D02*
X10135015Y-10925293D01*
X10135015Y-10925293D02*
X10125491Y-10963389D01*
X10125491Y-10963389D02*
X10115968Y-10982436D01*
X10115968Y-10982436D02*
X10106444Y-10991960D01*
X10106444Y-10991960D02*
X10087396Y-11001484D01*
X10087396Y-11001484D02*
X10068348Y-11001484D01*
X10068348Y-11001484D02*
X10049301Y-10991960D01*
X10049301Y-10991960D02*
X10039777Y-10982436D01*
X10039777Y-10982436D02*
X10030253Y-10963389D01*
X10030253Y-10963389D02*
X10020729Y-10925293D01*
X10020729Y-10925293D02*
X10020729Y-10877674D01*
X10020729Y-10877674D02*
X10030253Y-10839579D01*
X10030253Y-10839579D02*
X10039777Y-10820531D01*
X10039777Y-10820531D02*
X10049301Y-10811008D01*
X10049301Y-10811008D02*
X10068348Y-10801484D01*
X10201682Y-10801484D02*
X10335015Y-10801484D01*
X10335015Y-10801484D02*
X10249301Y-11001484D01*
X10449301Y-10801484D02*
X10468349Y-10801484D01*
X10468349Y-10801484D02*
X10487396Y-10811008D01*
X10487396Y-10811008D02*
X10496920Y-10820531D01*
X10496920Y-10820531D02*
X10506444Y-10839579D01*
X10506444Y-10839579D02*
X10515968Y-10877674D01*
X10515968Y-10877674D02*
X10515968Y-10925293D01*
X10515968Y-10925293D02*
X10506444Y-10963389D01*
X10506444Y-10963389D02*
X10496920Y-10982436D01*
X10496920Y-10982436D02*
X10487396Y-10991960D01*
X10487396Y-10991960D02*
X10468349Y-11001484D01*
X10468349Y-11001484D02*
X10449301Y-11001484D01*
X10449301Y-11001484D02*
X10430253Y-10991960D01*
X10430253Y-10991960D02*
X10420729Y-10982436D01*
X10420729Y-10982436D02*
X10411206Y-10963389D01*
X10411206Y-10963389D02*
X10401682Y-10925293D01*
X10401682Y-10925293D02*
X10401682Y-10877674D01*
X10401682Y-10877674D02*
X10411206Y-10839579D01*
X10411206Y-10839579D02*
X10420729Y-10820531D01*
X10420729Y-10820531D02*
X10430253Y-10811008D01*
X10430253Y-10811008D02*
X10449301Y-10801484D01*
X10611206Y-11001484D02*
X10649301Y-11001484D01*
X10649301Y-11001484D02*
X10668349Y-10991960D01*
X10668349Y-10991960D02*
X10677872Y-10982436D01*
X10677872Y-10982436D02*
X10696920Y-10953865D01*
X10696920Y-10953865D02*
X10706444Y-10915770D01*
X10706444Y-10915770D02*
X10706444Y-10839579D01*
X10706444Y-10839579D02*
X10696920Y-10820531D01*
X10696920Y-10820531D02*
X10687396Y-10811008D01*
X10687396Y-10811008D02*
X10668349Y-10801484D01*
X10668349Y-10801484D02*
X10630253Y-10801484D01*
X10630253Y-10801484D02*
X10611206Y-10811008D01*
X10611206Y-10811008D02*
X10601682Y-10820531D01*
X10601682Y-10820531D02*
X10592158Y-10839579D01*
X10592158Y-10839579D02*
X10592158Y-10887198D01*
X10592158Y-10887198D02*
X10601682Y-10906246D01*
X10601682Y-10906246D02*
X10611206Y-10915770D01*
X10611206Y-10915770D02*
X10630253Y-10925293D01*
X10630253Y-10925293D02*
X10668349Y-10925293D01*
X10668349Y-10925293D02*
X10687396Y-10915770D01*
X10687396Y-10915770D02*
X10696920Y-10906246D01*
X10696920Y-10906246D02*
X10706444Y-10887198D01*
X10782634Y-10801484D02*
X10782634Y-10839579D01*
X10858825Y-10801484D02*
X10858825Y-10839579D01*
X11154063Y-11077674D02*
X11144539Y-11068150D01*
X11144539Y-11068150D02*
X11125491Y-11039579D01*
X11125491Y-11039579D02*
X11115968Y-11020531D01*
X11115968Y-11020531D02*
X11106444Y-10991960D01*
X11106444Y-10991960D02*
X11096920Y-10944341D01*
X11096920Y-10944341D02*
X11096920Y-10906246D01*
X11096920Y-10906246D02*
X11106444Y-10858627D01*
X11106444Y-10858627D02*
X11115968Y-10830055D01*
X11115968Y-10830055D02*
X11125491Y-10811008D01*
X11125491Y-10811008D02*
X11144539Y-10782436D01*
X11144539Y-10782436D02*
X11154063Y-10772912D01*
X11220729Y-10820531D02*
X11230253Y-10811008D01*
X11230253Y-10811008D02*
X11249301Y-10801484D01*
X11249301Y-10801484D02*
X11296920Y-10801484D01*
X11296920Y-10801484D02*
X11315968Y-10811008D01*
X11315968Y-10811008D02*
X11325491Y-10820531D01*
X11325491Y-10820531D02*
X11335015Y-10839579D01*
X11335015Y-10839579D02*
X11335015Y-10858627D01*
X11335015Y-10858627D02*
X11325491Y-10887198D01*
X11325491Y-10887198D02*
X11211206Y-11001484D01*
X11211206Y-11001484D02*
X11335015Y-11001484D01*
X11573110Y-11001484D02*
X11573110Y-10801484D01*
X11658825Y-11001484D02*
X11658825Y-10896722D01*
X11658825Y-10896722D02*
X11649301Y-10877674D01*
X11649301Y-10877674D02*
X11630253Y-10868150D01*
X11630253Y-10868150D02*
X11601682Y-10868150D01*
X11601682Y-10868150D02*
X11582634Y-10877674D01*
X11582634Y-10877674D02*
X11573110Y-10887198D01*
X11782634Y-11001484D02*
X11763587Y-10991960D01*
X11763587Y-10991960D02*
X11754063Y-10982436D01*
X11754063Y-10982436D02*
X11744539Y-10963389D01*
X11744539Y-10963389D02*
X11744539Y-10906246D01*
X11744539Y-10906246D02*
X11754063Y-10887198D01*
X11754063Y-10887198D02*
X11763587Y-10877674D01*
X11763587Y-10877674D02*
X11782634Y-10868150D01*
X11782634Y-10868150D02*
X11811206Y-10868150D01*
X11811206Y-10868150D02*
X11830253Y-10877674D01*
X11830253Y-10877674D02*
X11839777Y-10887198D01*
X11839777Y-10887198D02*
X11849301Y-10906246D01*
X11849301Y-10906246D02*
X11849301Y-10963389D01*
X11849301Y-10963389D02*
X11839777Y-10982436D01*
X11839777Y-10982436D02*
X11830253Y-10991960D01*
X11830253Y-10991960D02*
X11811206Y-11001484D01*
X11811206Y-11001484D02*
X11782634Y-11001484D01*
X11963587Y-11001484D02*
X11944539Y-10991960D01*
X11944539Y-10991960D02*
X11935015Y-10972912D01*
X11935015Y-10972912D02*
X11935015Y-10801484D01*
X12115968Y-10991960D02*
X12096920Y-11001484D01*
X12096920Y-11001484D02*
X12058825Y-11001484D01*
X12058825Y-11001484D02*
X12039777Y-10991960D01*
X12039777Y-10991960D02*
X12030253Y-10972912D01*
X12030253Y-10972912D02*
X12030253Y-10896722D01*
X12030253Y-10896722D02*
X12039777Y-10877674D01*
X12039777Y-10877674D02*
X12058825Y-10868150D01*
X12058825Y-10868150D02*
X12096920Y-10868150D01*
X12096920Y-10868150D02*
X12115968Y-10877674D01*
X12115968Y-10877674D02*
X12125491Y-10896722D01*
X12125491Y-10896722D02*
X12125491Y-10915770D01*
X12125491Y-10915770D02*
X12030253Y-10934817D01*
X12201682Y-10991960D02*
X12220730Y-11001484D01*
X12220730Y-11001484D02*
X12258825Y-11001484D01*
X12258825Y-11001484D02*
X12277872Y-10991960D01*
X12277872Y-10991960D02*
X12287396Y-10972912D01*
X12287396Y-10972912D02*
X12287396Y-10963389D01*
X12287396Y-10963389D02*
X12277872Y-10944341D01*
X12277872Y-10944341D02*
X12258825Y-10934817D01*
X12258825Y-10934817D02*
X12230253Y-10934817D01*
X12230253Y-10934817D02*
X12211206Y-10925293D01*
X12211206Y-10925293D02*
X12201682Y-10906246D01*
X12201682Y-10906246D02*
X12201682Y-10896722D01*
X12201682Y-10896722D02*
X12211206Y-10877674D01*
X12211206Y-10877674D02*
X12230253Y-10868150D01*
X12230253Y-10868150D02*
X12258825Y-10868150D01*
X12258825Y-10868150D02*
X12277872Y-10877674D01*
X12354063Y-11077674D02*
X12363587Y-11068150D01*
X12363587Y-11068150D02*
X12382634Y-11039579D01*
X12382634Y-11039579D02*
X12392158Y-11020531D01*
X12392158Y-11020531D02*
X12401682Y-10991960D01*
X12401682Y-10991960D02*
X12411206Y-10944341D01*
X12411206Y-10944341D02*
X12411206Y-10906246D01*
X12411206Y-10906246D02*
X12401682Y-10858627D01*
X12401682Y-10858627D02*
X12392158Y-10830055D01*
X12392158Y-10830055D02*
X12382634Y-10811008D01*
X12382634Y-10811008D02*
X12363587Y-10782436D01*
X12363587Y-10782436D02*
X12354063Y-10772912D01*
M02*
